<?xml version="1.0" encoding="UTF-8"?>
<svg width="428px" height="400px" viewBox="0 0 428 400" version="1.1" xmlns="http://www.w3.org/2000/svg" xmlns:xlink="http://www.w3.org/1999/xlink">
 
    <g   stroke="none" stroke-width="1" fill="none" fill-rule="evenodd">
        <g  transform="translate(-746.000000, -222.000000)" fill="#0D1137">
            <g id="Logo" transform="translate(746.000000, 222.000000)">
                <path d="M368.275821,193.248358 C368.200199,192.975721 368.124577,192.693134 368.048955,192.478209 C364.466866,193.371741 346.854925,193.371741 327.752438,193.371741 L273.764378,193.371741 C271.04199,192.406567 270.341493,190.798607 270.341493,188.350846 C270.341493,185.069254 272.431045,177.007562 276.908657,163.576716 L287.356418,132.233433 C289.44597,125.964776 291.237015,125.069254 298.699701,125.069254 L343.772338,125.069254 C352.727562,125.069254 353.921592,125.964776 356.011144,132.53194 L369.145473,173.128955 C371.533532,180.291144 373.02607,185.664279 373.02607,188.947861 C373.02607,190.888159 371.235025,192.315025 368.275821,193.248358 L368.275821,193.248358 Z M258.799204,275.678209 C257.559403,271.956816 256.076816,268.219502 254.327562,264.480199 C245.674826,245.694129 231.953433,229.443383 214.22408,211.71204 C211.242985,208.730945 208.267861,205.803582 205.292736,202.896119 C209.611144,202.820498 213.746468,202.778706 217.489751,202.778706 C228.074826,202.778706 240.110647,203.069254 252.164378,203.648358 C258.494726,207.602587 258.799204,216.279204 258.799204,238.147861 L258.799204,275.678209 Z M213.380299,348.90806 C174.120597,388.165771 128.954428,396.607562 88.0071642,355.660299 C74.7076617,342.364776 68.799204,332.233433 70.6977114,321.047363 C72.1743284,312.392637 78.2957214,305.005572 89.481791,293.819502 L167.368358,215.932935 C173.473831,209.827463 178.003184,205.652338 181.248955,203.554826 C181.292736,203.588657 181.326567,203.640398 181.372338,203.672239 C183.8599,203.552836 186.399204,203.445373 188.952438,203.349851 C193.179303,205.594627 200.176318,210.752836 209.370348,219.944876 C264.667861,275.246368 236.598209,325.690149 213.380299,348.90806 L213.380299,348.90806 Z M296.908657,105.966766 L315.714627,54.0284577 C318.996219,45.0732338 321.981294,37.9090547 322.878806,36.4165174 L323.473831,36.4165174 C325.264876,39.998607 327.951443,48.0583085 330.341493,55.2224876 L346.458905,103.877214 C349.145473,111.936915 348.548458,113.128955 339.891741,113.128955 L303.177313,113.128955 C294.819104,113.128955 294.518607,112.832438 296.908657,105.966766 L296.908657,105.966766 Z M424.962388,202.677214 C426.454925,201.485174 427.05194,196.709055 424.962388,195.216517 L416.904677,194.320995 C404.066866,192.828458 400.188259,188.350846 391.531542,162.681194 L350.63801,42.6851741 C346.160398,29.5508458 341.384279,15.8214925 337.503682,2.68716418 C336.906667,0.59761194 334.819104,0.000597014925 333.02607,0.000597014925 C329.742488,3.88119403 324.667861,9.25432836 317.503682,11.3438806 C318.401194,16.11801 316.608159,21.7916418 312.431045,32.5359204 L281.983284,113.128955 C269.44597,146.561791 261.089751,165.964776 255.714627,179.694129 C252.848955,187.069254 248.854925,190.92796 244.315622,192.816517 C241.768358,192.717015 239.159403,192.605572 236.411144,192.478209 C236.148458,192.609552 235.923582,192.856318 235.716617,193.150846 C229.806169,189.690149 229.804179,182.350846 229.131542,171.138905 C226.745473,128.153831 226.444975,72.9319403 225.84995,41.2941294 C225.549453,20.398607 227.937512,14.7269652 246.743483,12.9359204 L253.012139,12.3389055 C254.504677,11.1448756 254.504677,6.06825871 252.713632,4.87621891 C243.4599,5.47323383 233.609154,5.77174129 226.146468,5.77174129 C220.176318,5.77174129 213.909652,5.77174129 203.760398,4.87621891 C203.163383,18.6055721 194.506667,35.0234826 181.073831,62.1876617 L153.016119,119.198607 C145.553433,134.422488 138.090746,149.944876 130.031045,163.974726 L129.43403,163.974726 C122.269851,150.838408 115.704677,137.109055 108.839005,123.079204 L74.8111443,54.1279602 C65.5574129,35.0234826 58.0947264,16.5160199 59.2887562,4.87621891 C49.43801,5.77174129 41.3783085,5.77174129 34.5126368,5.77174129 C27.0519403,5.77174129 19.8877612,5.47323383 10.9325373,4.87621891 C8.54447761,6.06825871 8.24597015,10.5458706 9.73850746,12.3389055 L14.5146269,12.9359204 C32.721592,15.3239801 35.1096517,19.801592 34.5126368,38.6055721 C33.9156219,55.0234826 32.721592,80.3946269 31.2290547,105.170746 C29.43801,134.720995 27.9454726,151.138905 26.1544279,170.838408 C24.3653731,191.73393 20.1842786,193.524975 7.64895522,195.31602 L1.08179104,196.211542 C-0.709253731,197.70408 -0.112238806,202.179701 1.67880597,203.672239 C11.8280597,203.075224 22.5743284,202.778706 32.1245771,202.778706 C43.4678607,202.778706 55.1096517,203.075224 65.2569154,203.672239 C67.3484577,202.778706 67.6469652,198.002587 65.5574129,196.211542 L54.2141294,195.31602 C42.5723383,194.420498 40.7812935,189.644378 40.7812935,167.556816 C40.7812935,142.183682 41.9753234,115.616517 42.8708458,97.4095522 C43.7663682,80.0981095 44.6618905,62.7826866 45.8559204,44.2772139 L46.4529353,44.2772139 C53.0200995,58.0085572 59.2887562,73.5309453 65.5574129,87.2602985 L92.4210945,144.870249 C99.2867662,159.497114 113.615124,188.748856 118.689751,204.567761 C119.284776,205.465274 120.777313,205.763781 121.376318,205.763781 C122.568358,205.763781 123.762388,205.465274 124.361393,204.567761 C129.732537,190.838408 143.165373,162.778706 156.598209,136.51204 L183.163383,84.2752239 C189.133532,72.6354229 200.476816,48.7548259 202.564378,45.4712438 L203.163383,45.4712438 L204.056915,169.942886 C204.056915,185.497114 204.054925,191.550846 196.158408,194.070249 C184.22806,182.673234 172.172338,171.636418 159.557413,160.422488 C156.602189,159.154826 153.43602,162.746866 154.068856,165.489154 L158.080796,170.764776 C165.678806,180.898109 162.301692,186.386667 147.525572,201.160796 L67.320597,281.363781 C45.159403,303.526965 42.2041791,305.638408 28.2738308,295.085174 L22.7852736,290.864279 C20.2539303,290.864279 17.2987065,294.663284 17.9315423,296.561791 C28.2718408,306.060299 36.0827861,313.445373 44.9484577,322.311045 C52.3355224,329.7001 64.1544279,344.898109 77.6628856,358.406567 C93.9136318,374.659303 113.967363,389.222488 135.073831,395.554826 C172.22209,406.52995 208.104677,396.398607 234.908657,369.592637 C245.901692,358.599602 254.054925,345.958806 258.799204,332.305075 L258.799204,345.606567 C258.799204,376.947861 257.306667,381.425473 240.291741,382.91801 L230.442985,383.813532 C228.65194,385.602587 229.248955,390.380697 231.04,391.276219 C248.65194,390.679204 258.799204,390.380697 271.635025,390.380697 L298.498706,390.380697 C325.065871,390.380697 351.633035,390.679204 378.496716,391.276219 C382.377313,383.216517 389.84,360.231443 391.929552,349.783682 C390.733532,347.099104 386.556418,346.201592 384.466866,347.694129 C376.705672,363.216517 368.64597,373.664279 363.272836,376.649353 C356.707662,379.932935 348.050945,381.126965 325.065871,381.126965 C298.799204,381.126965 292.528557,377.843383 288.948458,374.261294 C284.170348,369.186667 283.276816,359.039403 283.276816,343.216517 L283.276816,301.130945 C283.276816,293.369751 284.170348,293.069254 293.125572,293.069254 L310.440995,293.069254 C322.080796,293.069254 329.244975,293.369751 333.42209,294.561791 C339.392239,296.054328 341.481791,300.53194 342.677811,305.905075 L345.362388,317.546866 C346.854925,319.33592 351.929552,319.33592 353.125572,317.250348 C353.125572,310.681194 351.929552,299.3399 351.929552,288.591642 C351.929552,277.250348 353.125572,265.608557 353.125572,258.446368 C351.929552,256.354826 346.854925,256.354826 345.362388,258.145871 L342.974328,270.386667 C341.481791,277.847363 339.392239,279.636418 335.812139,280.832438 C332.23005,282.026468 322.976318,282.621493 310.440995,282.621493 L293.125572,282.621493 C284.170348,282.621493 283.276816,282.621493 283.276816,274.265274 L283.276816,214.567761 C283.276816,203.222488 283.276816,202.627463 292.23005,202.627463 L313.722587,202.627463 C326.856915,202.627463 336.407164,202.92398 342.677811,204.416517 C358.200199,208.297114 360.884776,218.746866 365.362388,232.772736 C366.854925,234.565771 371.631045,233.968756 372.825075,232.177711 C372.027065,223.415522 370.966368,210.955821 369.814129,202.11005 C375.4599,201.928955 381.786269,201.783682 388.844975,201.783682 C402.277811,201.783682 412.723582,202.080199 424.962388,202.677214 L424.962388,202.677214 Z" id="Fill-1"></path>
            </g>
        </g>
    </g>
</svg>