<?xml version="1.0" encoding="UTF-8"?>
<svg width="1061px" height="207px" viewBox="0 0 1061 207" version="1.1" xmlns="http://www.w3.org/2000/svg" xmlns:xlink="http://www.w3.org/1999/xlink">
    <title>spotlight logo black</title>
    <g id="Hackathon" stroke="none" stroke-width="1" fill="none" fill-rule="evenodd">
        <g id="Artboard-Copy-4" transform="translate(-10390.000000, -5831.000000)" fill="#000000" fill-rule="nonzero">
            <g id="spotlight-logo-black" transform="translate(10390.000000, 5831.000000)">
                <polygon id="spot" points="237 0 0 111.89471 0 207 170.695398 207"></polygon>
                <path d="M336.576091,111.632703 L322.459615,116.071995 C321.544659,110.327029 316.708459,101.840146 304.291189,101.840146 C294.880205,101.840146 288.3448,108.107383 288.3448,115.158023 C288.3448,121.033557 292.004627,125.472849 299.193572,127.039658 L312.525799,129.781574 C328.864313,133.04576 337.621756,143.360586 337.621756,156.417328 C337.621756,170.779744 325.988734,184.489323 304.814021,184.489323 C281.286562,184.489323 270.437789,169.343502 269,156.025625 L283.639308,151.847468 C284.554265,161.509457 291.481794,170.388041 304.814021,170.388041 C315.92421,170.388041 321.675367,164.773642 321.675367,157.592434 C321.675367,151.586333 317.231291,146.755339 309.258097,145.057962 L296.187286,142.316046 C282.070811,139.443563 272.659827,130.173276 272.659827,116.33313 C272.659827,100.795607 286.907011,88 304.160481,88 C325.988734,88 334.484761,101.317877 336.576091,111.632703 Z M374.925849,132.52349 L391.264362,132.52349 C401.198178,132.52349 407.210751,127.039658 407.210751,118.291641 C407.210751,109.413057 401.198178,103.798658 391.264362,103.798658 L374.925849,103.798658 L374.925849,132.52349 Z M393.617108,146.363636 L374.925849,146.363636 L374.925849,182.530811 L359.240876,182.530811 L359.240876,89.9585113 L393.617108,89.9585113 C411.393411,89.9585113 423.15714,101.970714 423.15714,118.161074 C423.15714,134.482001 411.393411,146.363636 393.617108,146.363636 Z M454.971493,136.179378 C454.971493,158.506406 470.39505,169.604637 485.949314,169.604637 C501.634287,169.604637 517.057844,158.506406 517.057844,136.179378 C517.057844,113.852349 501.634287,102.754118 485.949314,102.754118 C470.39505,102.754118 454.971493,113.852349 454.971493,136.179378 Z M438.894396,136.179378 C438.894396,105.887736 461.637607,88 485.949314,88 C510.261022,88 533.134941,105.887736 533.134941,136.179378 C533.134941,166.601586 510.261022,184.489323 485.949314,184.489323 C461.637607,184.489323 438.894396,166.601586 438.894396,136.179378 Z M621.720181,104.71263 L591.526608,104.71263 L591.526608,182.530811 L575.841636,182.530811 L575.841636,104.71263 L545.778771,104.71263 L545.778771,89.9585113 L621.720181,89.9585113 L621.720181,104.71263 Z M706.165107,184.530811 L648,184.530811 L648,91.9585113 L663.684973,91.9585113 L663.684973,169.646126 L706.165107,169.646126 L706.165107,184.530811 Z M747.434013,184.530811 L731.487624,184.530811 L731.487624,91.9585113 L747.434013,91.9585113 L747.434013,184.530811 Z M859.328866,184.530811 L846.650179,184.530811 L845.473807,172.779744 C841.421855,179.56925 831.880163,186.489323 817.110148,186.489323 C792.929148,186.489323 771.493019,168.732154 771.493019,138.179378 C771.493019,107.757169 794.105521,90 818.155812,90 C840.637607,90 855.015498,102.926174 859.982406,118.202563 L845.21239,123.816962 C842.075396,113.371568 832.925828,104.492984 818.155812,104.492984 C803.12438,104.492984 787.439407,115.199512 787.439407,138.179378 C787.439407,160.767541 802.078715,172.126907 818.025104,172.126907 C836.716363,172.126907 843.774601,159.3313 844.55885,151.366687 L813.973153,151.366687 L813.973153,137.657108 L859.328866,137.657108 L859.328866,184.530811 Z M963.381232,184.530811 L947.565551,184.530811 L947.565551,144.968883 L904.039752,144.968883 L904.039752,184.530811 L888.354779,184.530811 L888.354779,91.9585113 L904.039752,91.9585113 L904.039752,130.214765 L947.565551,130.214765 L947.565551,91.9585113 L963.381232,91.9585113 L963.381232,184.530811 Z M1060.68897,106.462037 L1031.00822,106.462037 L1031.00822,182.958511 L1015.58965,182.958511 L1015.58965,106.462037 L986.037393,106.462037 L986.037393,91.9585113 L1060.68897,91.9585113 L1060.68897,106.462037 Z" id="SPOTLIGHT"></path>
            </g>
        </g>
    </g>
</svg>