<?xml version="1.0" encoding="UTF-8"?>
<svg width="596px" height="520px" viewBox="0 0 596 520" version="1.1" xmlns="http://www.w3.org/2000/svg" xmlns:xlink="http://www.w3.org/1999/xlink">
    <title>spotlight logo symbol white</title>
    <g id="Hackathon" stroke="none" stroke-width="1" fill="none" fill-rule="evenodd">
        <g id="Artboard-Copy-4" transform="translate(-9454.000000, -6641.000000)" fill-rule="nonzero">
            <g id="spotlight-logo-symbol-white" transform="translate(9454.000000, 6641.000000)">
                <polygon id="spot" fill="#FFFFFF" points="596 0 0 260 0 520 456 520"></polygon>
                <path d="M194.821926,398.510677 C181.921619,398.510677 169.429648,403.517784 160.472196,412.766362 C152.379345,421.122238 147.159132,432.943938 147.159132,447.690055 C147.159132,462.594753 152.17791,474.50372 160.089803,482.882658 C168.744261,492.047996 180.875706,497 193.776261,497 C207.350559,497 216.602826,491.295326 221.417086,485.109028 L222.411402,495.041489 L236.994979,495.041489 L236.994979,446.167785 L189.639266,446.167785 L189.639266,461.877364 L220.084276,461.877364 C219.382114,466.118837 216.921555,471.430007 211.959043,475.312717 C207.952733,478.447287 202.321428,480.637584 194.691218,480.637584 C186.524831,480.637584 178.70657,477.56498 173.16539,471.41474 C168.221616,465.927571 165.105521,458.006294 165.105521,447.690055 C165.105521,437.431184 168.29964,429.676406 173.199721,424.302533 C178.930012,418.018177 186.970429,415.003661 194.821926,415.003661 C201.511453,415.003661 207.012055,416.878868 211.276012,419.924213 C216.396297,423.581153 219.726998,428.916037 221.210212,434.65148 L237.883592,428.313572 C235.293941,419.670326 229.790605,411.689823 221.595368,406.163992 C214.595681,401.444289 205.627435,398.510677 194.821926,398.510677 Z M41.3510861,400.469189 L23.6661134,400.469189 L23.6661134,495.041489 L83.8312206,495.041489 L83.8312206,478.156803 L41.3510861,478.156803 L41.3510861,400.469189 Z M125.100127,400.469189 L107.153738,400.469189 L107.153738,495.041489 L125.100127,495.041489 L125.100127,400.469189 Z M281.705865,400.469189 L264.020893,400.469189 L264.020893,495.041489 L281.705865,495.041489 L281.705865,455.479561 L323.231665,455.479561 L323.231665,495.041489 L341.047345,495.041489 L341.047345,400.469189 L323.231665,400.469189 L323.231665,438.725442 L281.705865,438.725442 L281.705865,400.469189 Z M439,400.469189 L361.05859,400.469189 L361.05859,417.223307 L391.121455,417.223307 L391.121455,495.041489 L408.806428,495.041489 L408.806428,417.223307 L439,417.223307 L439,400.469189 Z M53.1604805,281 C44.2700513,281 36.1571106,284.302585 30.2661287,289.601204 C24.338118,294.933128 20.659827,302.281772 20.659827,310.33313 C20.659827,317.38035 23.0151308,323.283198 27.1302009,327.82774 C31.3882247,332.530155 37.5486912,335.782204 44.9878879,337.295965 L58.0527913,340.03666 C61.757537,340.825351 64.6689045,342.315339 66.6574702,344.322674 C68.6315999,346.315437 69.6753667,348.815619 69.6753667,351.592434 C69.6753667,355.007332 68.2563264,358.036845 65.4620449,360.157347 C62.7810576,362.191874 58.8753791,363.388041 53.814021,363.388041 C47.8867715,363.388041 43.2757493,361.567816 39.9621073,358.666392 C35.8717565,355.084882 33.7700473,349.878772 33.553338,344.546666 L16.9268708,349.291972 C17.5490539,357.10285 21.3225995,365.647879 28.8789997,371.653435 C34.7731687,376.337909 42.9777094,379.489323 53.814021,379.489323 C64.079835,379.489323 72.1529036,376.334403 77.8285311,371.478043 C84.2529038,365.981017 87.6217556,358.292788 87.6217556,350.417328 C87.6217556,343.500003 85.251734,337.326331 80.6880163,332.4826 C76.337614,327.865273 69.9760633,324.450046 61.7217124,322.800953 L48.4008409,320.061356 C45.112085,319.343667 42.6006502,318.000912 40.9088112,316.148001 C39.1960775,314.272206 38.3447997,311.88124 38.3447997,309.158023 C38.3447997,305.824426 39.9477803,302.691486 42.660703,300.425746 C45.2974943,298.223588 48.9774978,296.840146 53.2911886,296.840146 C58.2999534,296.840146 62.0169057,298.278519 64.692813,300.374633 C68.7340153,303.540223 70.3901498,308.173386 70.6044027,311.389221 L86.7220698,306.320602 C85.6496974,300.068022 82.2875052,292.548321 75.1303341,287.330363 C69.9803713,283.575767 62.8543423,281 53.1604805,281 Z M234.949314,281 C247.973654,281 260.590488,286.033136 269.644766,295.278101 C277.844616,303.650644 283.134941,315.480178 283.134941,330.179378 C283.134941,344.934766 277.848932,356.792722 269.655501,365.181383 C260.600323,374.452324 247.978742,379.489323 234.949314,379.489323 C221.927109,379.489323 209.349103,374.458152 200.329341,365.197819 C192.157933,356.808467 186.894396,344.94475 186.894396,330.179378 C186.894396,315.47023 192.162233,303.634938 200.34005,295.261697 C209.358919,286.027307 221.932201,281 234.949314,281 Z M234.949314,297.754118 C226.902675,297.754118 218.887205,300.817108 213.174884,306.980738 C208.187206,312.362473 204.971493,320.098815 204.971493,330.179378 C204.971493,340.25994 208.187206,347.996282 213.174884,353.378017 C218.887205,359.541647 226.902675,362.604637 234.949314,362.604637 C243.057661,362.604637 251.099343,359.547607 256.826532,353.393901 C261.835697,348.011691 265.057844,340.269978 265.057844,330.179378 C265.057844,320.088777 261.835697,312.347065 256.826532,306.964855 C251.099343,300.811148 243.057661,297.754118 234.949314,297.754118 Z M142.617108,282.958511 C151.692303,282.958511 159.239272,286.008108 164.560521,291.08843 C170.024651,296.305163 173.15714,303.675073 173.15714,312.161074 C173.15714,320.698705 170.035711,328.054856 164.591864,333.252224 C159.269144,338.33395 151.710577,341.363636 142.617108,341.363636 L142.617108,341.363636 L124.925849,341.363636 L124.925849,377.530811 L107.240876,377.530811 L107.240876,282.958511 Z M140.264362,298.798658 L124.925849,298.798658 L124.925849,325.52349 L140.264362,325.52349 C144.921539,325.52349 148.681905,324.275882 151.269319,321.966665 C153.83392,319.677808 155.210751,316.357008 155.210751,312.291641 C155.210751,308.153953 153.829403,304.763398 151.255646,302.424221 C148.67013,300.074357 144.914655,298.798658 140.264362,298.798658 Z M371.720181,282.958511 L293.778771,282.958511 L293.778771,299.71263 L323.841636,299.71263 L323.841636,377.530811 L341.526608,377.530811 L341.526608,299.71263 L371.720181,299.71263 L371.720181,282.958511 Z" id="SPOTLIGHT" stroke="#000000" stroke-width="2" fill="#000000"></path>
            </g>
        </g>
    </g>
</svg>