<?xml version="1.0" encoding="UTF-8"?>
<svg width="596px" height="520px" viewBox="0 0 596 520" version="1.1" xmlns="http://www.w3.org/2000/svg" xmlns:xlink="http://www.w3.org/1999/xlink">
    <title>spotlight logo symbol black</title>
    <g id="Hackathon" stroke="none" stroke-width="1" fill="none" fill-rule="evenodd">
        <g id="Artboard-Copy-4" transform="translate(-9454.000000, -5647.000000)" fill-rule="nonzero">
            <g id="spotlight-logo-symbol-black" transform="translate(9454.000000, 5647.000000)">
                <polygon id="spot" fill="#000000" points="596 0 0 260 0 520 456 520"></polygon>
                <path d="M85.5760908,305.632703 L71.4596153,310.071995 C70.5446586,304.327029 65.7084587,295.840146 53.2911886,295.840146 C43.880205,295.840146 37.3447997,302.107383 37.3447997,309.158023 C37.3447997,315.033557 41.0046267,319.472849 48.1935725,321.039658 L61.5257993,323.781574 C77.8643125,327.04576 86.6217556,337.360586 86.6217556,350.417328 C86.6217556,364.779744 74.9887342,378.489323 53.814021,378.489323 C30.286562,378.489323 19.4377892,363.343502 18,350.025625 L32.6393079,345.847468 C33.5542646,355.509457 40.4817942,364.388041 53.814021,364.388041 C64.92421,364.388041 70.6753667,358.773642 70.6753667,351.592434 C70.6753667,345.586333 66.2312911,340.755339 58.2580966,339.057962 L45.187286,336.316046 C31.0708106,333.443563 21.659827,324.173276 21.659827,310.33313 C21.659827,294.795607 35.9070105,282 53.1604805,282 C74.9887342,282 83.4847611,295.317877 85.5760908,305.632703 Z M123.925849,326.52349 L140.264362,326.52349 C150.198178,326.52349 156.210751,321.039658 156.210751,312.291641 C156.210751,303.413057 150.198178,297.798658 140.264362,297.798658 L123.925849,297.798658 L123.925849,326.52349 Z M142.617108,340.363636 L123.925849,340.363636 L123.925849,376.530811 L108.240876,376.530811 L108.240876,283.958511 L142.617108,283.958511 C160.393411,283.958511 172.15714,295.970714 172.15714,312.161074 C172.15714,328.482001 160.393411,340.363636 142.617108,340.363636 Z M203.971493,330.179378 C203.971493,352.506406 219.39505,363.604637 234.949314,363.604637 C250.634287,363.604637 266.057844,352.506406 266.057844,330.179378 C266.057844,307.852349 250.634287,296.754118 234.949314,296.754118 C219.39505,296.754118 203.971493,307.852349 203.971493,330.179378 Z M187.894396,330.179378 C187.894396,299.887736 210.637607,282 234.949314,282 C259.261022,282 282.134941,299.887736 282.134941,330.179378 C282.134941,360.601586 259.261022,378.489323 234.949314,378.489323 C210.637607,378.489323 187.894396,360.601586 187.894396,330.179378 Z M370.720181,298.71263 L340.526608,298.71263 L340.526608,376.530811 L324.841636,376.530811 L324.841636,298.71263 L294.778771,298.71263 L294.778771,283.958511 L370.720181,283.958511 L370.720181,298.71263 Z M82.8312206,494.041489 L24.6661134,494.041489 L24.6661134,401.469189 L40.3510861,401.469189 L40.3510861,479.156803 L82.8312206,479.156803 L82.8312206,494.041489 Z M124.100127,494.041489 L108.153738,494.041489 L108.153738,401.469189 L124.100127,401.469189 L124.100127,494.041489 Z M235.994979,494.041489 L223.316293,494.041489 L222.13992,482.290421 C218.087969,489.079927 208.546277,496 193.776261,496 C169.595261,496 148.159132,478.242831 148.159132,447.690055 C148.159132,417.267846 170.771634,399.510677 194.821926,399.510677 C217.30372,399.510677 231.681612,412.436852 236.64852,427.71324 L221.878504,433.327639 C218.741509,422.882245 209.591942,414.003661 194.821926,414.003661 C179.790494,414.003661 164.105521,424.710189 164.105521,447.690055 C164.105521,470.278218 178.744829,481.637584 194.691218,481.637584 C213.382477,481.637584 220.440715,468.841977 221.224963,460.877364 L190.639266,460.877364 L190.639266,447.167785 L235.994979,447.167785 L235.994979,494.041489 Z M340.047345,494.041489 L324.231665,494.041489 L324.231665,454.479561 L280.705865,454.479561 L280.705865,494.041489 L265.020893,494.041489 L265.020893,401.469189 L280.705865,401.469189 L280.705865,439.725442 L324.231665,439.725442 L324.231665,401.469189 L340.047345,401.469189 L340.047345,494.041489 Z M438,416.223307 L407.806428,416.223307 L407.806428,494.041489 L392.121455,494.041489 L392.121455,416.223307 L362.05859,416.223307 L362.05859,401.469189 L438,401.469189 L438,416.223307 Z" id="SPOTLIGHT" fill="#FFFFFF"></path>
            </g>
        </g>
    </g>
</svg>