<?xml version="1.0" encoding="UTF-8"?>
<svg width="25px" height="23px" viewBox="0 0 25 23" version="1.1" xmlns="http://www.w3.org/2000/svg" xmlns:xlink="http://www.w3.org/1999/xlink">
    <title>Acrobat-Icon</title>
    <g id="Welcome" stroke="none" stroke-width="1" fill="none" fill-rule="evenodd">
        <g id="MADE_Website-Design_Concept_HOME-PAGE_v1" transform="translate(-443.000000, -7545.000000)" fill="#FFFFFF">
            <g id="Footer" transform="translate(0.000000, 6960.000000)">
                <g id="Content" transform="translate(298.000000, 233.000000)">
                    <g id="My-Qualifications" transform="translate(0.000000, 220.000000)">
                        <g id="Logos" transform="translate(32.555556, 132.000000)">
                            <g id="Acrobat-Icon" transform="translate(113.444444, 0.000000)">
                                <path d="M0.959452695,22.0175204 L22.0424662,22.0175204 L22.0424662,0.982479559 L0.959452695,0.982479559 L0.959452695,22.0175204 Z M0,23 L23,23 L23,0 L0,0 L0,23 Z" id="Fill-33"></path>
                                <path d="M7.68965537,15.4008741 C7.68965537,15.4008741 5.87324366,19.0145493 4.69183767,18.2903015 C3.56396414,17.6000914 7.06018749,15.4689496 7.68965537,15.4008741 L7.68965537,15.4008741 Z M10.2795188,13.0560509 C10.7428515,11.9895345 11.2191058,10.5391479 11.2191058,10.5391479 C11.8614953,11.7645071 13.1333527,13.2035478 13.1333527,13.2035478 C13.1333527,13.2035478 12.6460227,13.2602774 11.5144573,13.5420344 C10.3828918,13.8256824 9.81434021,14.1206763 9.81434021,14.1206763 L10.2795188,13.0560509 Z M10.0580052,5.85895635 C10.0580052,4.73760137 10.412427,4.43126156 10.6874731,4.43126156 C10.9643651,4.43126156 11.2744842,4.56741259 11.2855599,5.54127062 C11.2966355,6.51701965 10.6874731,8.42124303 10.6874731,8.42124303 C10.4770351,8.19432465 10.0580052,6.98220232 10.0580052,5.85895635 L10.0580052,5.85895635 Z M17.916201,14.0488188 C17.916201,15.3365806 15.6364566,14.8127773 14.2353829,13.4437031 C14.2353829,13.4437031 17.916201,12.761057 17.916201,14.0488188 L17.916201,14.0488188 Z M7.51244447,17.52067 C8.86367758,15.7072139 9.47099409,14.574513 9.47099409,14.574513 C9.47099409,14.574513 11.5310708,13.9958712 12.1716144,13.8370283 C12.8121579,13.6781854 13.5856096,13.5533803 13.5856096,13.5533803 C13.5856096,13.5533803 15.4666295,15.4916415 17.2811953,15.423566 C19.095761,15.3554905 19.0071556,14.3135569 18.9960799,14.2000977 C18.9850042,14.0866385 18.8853231,12.7724029 16.6074247,12.8291325 C14.3276803,12.8858621 13.7738962,13.0333591 13.7738962,13.0333591 C13.7738962,13.0333591 12.0700873,11.2652867 11.4516951,9.8943215 C11.4516951,9.8943215 12.2029955,7.63837463 12.1697684,6.22202576 C12.1365414,4.80567688 11.8061169,3.98877072 10.7428515,4 C9.68143204,4.01146256 9.5263725,4.96451975 9.66666446,6.38086862 C9.79218885,7.65161153 10.4327324,9.14549085 10.4327324,9.14549085 C10.4327324,9.14549085 9.94355649,10.7093367 9.2937832,12.2656185 C8.64585585,13.8219004 8.2028286,14.6388066 8.2028286,14.6388066 C8.2028286,14.6388066 6.00799778,15.3895282 5.05733515,16.2972017 C4.10667251,17.2029842 3.71902367,17.8988673 4.21927527,18.5966413 C4.65122684,19.197975 6.16305732,19.334126 7.51244447,17.52067 L7.51244447,17.52067 Z" id="Fill-153"></path>
                            </g>
                        </g>
                    </g>
                </g>
            </g>
        </g>
    </g>
</svg>