<?xml version="1.0" encoding="UTF-8"?>
<svg width="25px" height="23px" viewBox="0 0 25 23" version="1.1" xmlns="http://www.w3.org/2000/svg" xmlns:xlink="http://www.w3.org/1999/xlink">
    <title>AfterEffects-Icon</title>
    <g id="Welcome" stroke="none" stroke-width="1" fill="none" fill-rule="evenodd">
        <g id="MADE_Website-Design_Concept_HOME-PAGE_v1" transform="translate(-578.000000, -7545.000000)" fill="#FFFFFF">
            <g id="Footer" transform="translate(0.000000, 6960.000000)">
                <g id="Content" transform="translate(298.000000, 233.000000)">
                    <g id="My-Qualifications" transform="translate(0.000000, 220.000000)">
                        <g id="Logos" transform="translate(32.555556, 132.000000)">
                            <g id="Group-25" transform="translate(113.444444, 0.000000)">
                                <g id="AfterEffects-Icon" transform="translate(135.000000, 0.000000)">
                                    <path d="M0.957693591,22.0173565 L22.0423064,22.0173565 L22.0423064,0.982643525 L0.957693591,0.982643525 L0.957693591,22.0173565 Z M0,23 L23,23 L23,0 L0,0 L0,23 Z" id="Fill-34"></path>
                                    <path d="M16.1410419,9.38654292 C17.1302414,9.38654292 17.3818297,10.336891 17.3818297,10.8547564 C17.3818297,10.9011601 17.366582,10.9549884 17.366582,11.0180974 C17.3189327,11.0348028 17.1454892,11.0348028 16.6594663,11.0348028 L14.7439644,11.0348028 C14.8373571,10.1865429 15.2299873,9.38654292 16.1410419,9.38654292 M16.4555273,16 C17.2407878,16 17.8659466,15.8904872 18.3691233,15.638051 C18.4320203,15.5916473 18.4625159,15.5452436 18.4625159,15.45058 L18.4625159,14.2589327 C18.4625159,14.1791183 18.4148666,14.1642691 18.3519695,14.1958237 C17.8506989,14.4148492 17.366582,14.4890951 16.8005083,14.4890951 C15.3557814,14.4890951 14.7439644,13.6278422 14.7268107,12.3415313 L17.2083863,12.3415313 C18.0412961,12.3415313 18.6073698,12.3099768 18.796061,12.2784223 C18.8742058,12.2635731 18.9047014,12.2357309 18.9199492,12.1559165 C18.9675985,11.9832947 19,11.6083527 19,11.1517401 C19,9.74106729 18.2776366,8 16.203939,8 C14.1626429,8 13,9.83573086 13,12.0779582 C13,14.14942 13.9434562,16 16.4555273,16" id="Fill-155"></path>
                                    <path d="M7.89003046,6.57365992 L7.90524006,6.57365992 C8.14098886,7.74707135 8.78359447,10.170039 9.04976248,11.2770678 L6.77972964,11.2751154 C7.17137685,9.72488463 7.68660206,7.74707135 7.89003046,6.57365992 M4.0990376,16 L5.49261722,16 C5.58767722,16 5.61809642,15.9687611 5.63330602,15.886759 L6.38618124,12.8995385 L9.42620008,12.8995385 L10.2075933,15.9023784 C10.2247041,15.9687611 10.2703329,16 10.3501833,16 L11.9167721,16 C11.9947213,16 12.0099309,15.9492368 11.9947213,15.8672346 L8.96991207,5.09957401 C8.95470247,5.01561945 8.92428327,5 8.86154367,5 L6.87098724,5 C6.82535844,5 6.79303804,5.03319134 6.79303804,5.09957401 C6.77782844,5.59353923 6.74740924,5.73606674 6.69987924,5.91764288 L4.0058788,15.8516152 C3.988768,15.9668087 4.0058788,16 4.0990376,16" id="Fill-156"></path>
                                </g>
                            </g>
                        </g>
                    </g>
                </g>
            </g>
        </g>
    </g>
</svg>