<?xml version="1.0" encoding="UTF-8"?>
<svg width="60px" height="16px" viewBox="0 0 60 16" version="1.1" xmlns="http://www.w3.org/2000/svg" xmlns:xlink="http://www.w3.org/1999/xlink">
    <title>Autocad-Icon</title>
    <defs>
        <polygon id="path-1" points="0.3021 0.334898361 4.31078852 0.334898361 4.31078852 5.60655738 0.3021 5.60655738"></polygon>
        <polygon id="path-3" points="0.285280328 0.245286885 4.18370656 0.245286885 4.18370656 5.60655738 0.285280328 5.60655738"></polygon>
        <polygon id="path-5" points="0.506645902 0.919101639 1.41752459 0.919101639 1.41752459 1.85352787 0.506645902 1.85352787"></polygon>
    </defs>
    <g id="Welcome" stroke="none" stroke-width="1" fill="none" fill-rule="evenodd">
        <g id="MADE_Website-Design_Concept_HOME-PAGE_v1" transform="translate(-496.000000, -7580.000000)">
            <g id="Footer" transform="translate(0.000000, 6960.000000)">
                <g id="Content" transform="translate(298.000000, 233.000000)">
                    <g id="My-Qualifications" transform="translate(0.000000, 220.000000)">
                        <g id="Logos" transform="translate(32.555556, 132.000000)">
                            <g id="Group-9" transform="translate(0.444444, 31.000000)">
                                <g id="Group-7" transform="translate(166.000000, 4.000000)">
                                    <g id="Autocad-Icon" transform="translate(0.000000, -0.000000)">
                                        <polygon id="Fill-1" fill="#FFFFFF" points="15.1694754 14.2352361 15.4441967 14.2352361 15.4441967 1.18036721 15.1694754 1.18036721"></polygon>
                                        <path d="M21.7200836,1.07589836 L19.6213623,6.19935738 L20.1128705,6.19935738 L20.6632475,4.82668525 L23.2469361,4.82668525 L23.7963787,6.19935738 L24.3252639,6.19935738 L22.2919525,1.07589836 L21.7200836,1.07589836 Z M21.968641,1.55993115 L23.0778049,4.38563607 L20.8538705,4.38563607 L21.968641,1.55993115 Z" id="Fill-2" fill="#FFFFFF"></path>
                                        <g id="Group-67" transform="translate(0.000000, 0.273039)">
                                            <path d="M28.7290279,4.13464918 C28.7290279,4.51122295 28.6682902,4.82238689 28.5458803,5.06720656 C28.4234705,5.31202623 28.2692902,5.50358361 28.0833393,5.64281311 C27.8964541,5.78297705 27.6955525,5.87922295 27.4778311,5.93341967 C27.2601098,5.98668197 27.0582738,6.01378033 26.872323,6.01378033 C26.6854377,6.01378033 26.4845361,5.98668197 26.2658803,5.93341967 C26.0490934,5.87922295 25.8472574,5.78297705 25.6613066,5.64281311 C25.4753557,5.50358361 25.3211754,5.31202623 25.1987656,5.06720656 C25.0763557,4.82238689 25.0146836,4.51122295 25.0146836,4.13464918 L25.0146836,0.803419672 L25.5211426,0.803419672 L25.5211426,4.13464918 C25.5211426,4.34582951 25.5501098,4.53925574 25.6061754,4.71492787 C25.662241,4.89153443 25.7482082,5.04291148 25.8631426,5.16905902 C25.978077,5.29707541 26.1201098,5.39705902 26.289241,5.46714098 C26.4574377,5.53815738 26.6517984,5.57366557 26.872323,5.57366557 C27.0919131,5.57366557 27.2862738,5.53815738 27.4554049,5.46714098 C27.6236016,5.39705902 27.7665689,5.29707541 27.8815033,5.16905902 C27.9964377,5.04291148 28.0824049,4.89153443 28.1375361,4.71492787 C28.1945361,4.53925574 28.2225689,4.34582951 28.2225689,4.13464918 L28.2225689,0.803419672 L28.7290279,0.803419672 L28.7290279,4.13464918 Z" id="Fill-3" fill="#FFFFFF"></path>
                                            <polygon id="Fill-5" fill="#FFFFFF" points="30.9017557 1.24372131 29.3898541 1.24372131 29.3898541 0.802672131 32.919182 0.802672131 32.919182 1.24372131 31.4072803 1.24372131 31.4072803 5.92613115 30.9017557 5.92613115"></polygon>
                                            <path d="M34.8539115,1.34594754 C34.6361902,1.47396393 34.4549115,1.64216066 34.3100754,1.85240656 C34.1661738,2.06358689 34.0596492,2.29999672 33.9914361,2.56443934 C33.9222885,2.82888197 33.8886492,3.09519344 33.8886492,3.3643082 C33.8886492,3.63809508 33.9222885,3.90627541 33.9914361,4.16884918 C34.0596492,4.43048852 34.1661738,4.66596393 34.3100754,4.87620984 C34.4549115,5.08645574 34.6361902,5.25558689 34.8539115,5.38266885 C35.0706984,5.50975082 35.3323377,5.5732918 35.6350918,5.5732918 C35.9331738,5.5732918 36.1929443,5.50975082 36.4134689,5.38266885 C36.633059,5.25558689 36.8162066,5.08645574 36.9601082,4.87620984 C37.1040098,4.66596393 37.2105344,4.43048852 37.279682,4.16884918 C37.3478951,3.90627541 37.3815344,3.63809508 37.3815344,3.3643082 C37.3815344,3.09519344 37.3478951,2.82888197 37.279682,2.56443934 C37.2105344,2.29999672 37.1040098,2.06358689 36.9601082,1.85240656 C36.8162066,1.64216066 36.633059,1.47396393 36.4134689,1.34594754 C36.1929443,1.21886557 35.9331738,1.15532459 35.6350918,1.15532459 C35.3323377,1.15532459 35.0706984,1.21886557 34.8539115,1.34594754 M33.511141,2.36634098 C33.6008459,2.04863607 33.739141,1.76643934 33.9250918,1.52161967 C34.1110426,1.27773443 34.3455836,1.08243934 34.6296492,0.935734426 C34.9127803,0.788095082 35.2491738,0.71427541 35.6350918,0.71427541 C36.0219443,0.71427541 36.3564689,0.788095082 36.6405344,0.935734426 C36.9246,1.08243934 37.159141,1.27773443 37.3450918,1.52161967 C37.5310426,1.76643934 37.6693377,2.04863607 37.759977,2.36634098 C37.8506164,2.68498033 37.8936,3.01670164 37.8879934,3.3643082 C37.8833213,3.75583279 37.8328623,4.11465246 37.7375508,4.43983279 C37.6422393,4.76501311 37.5002066,5.04440656 37.3123869,5.27614426 C37.1245672,5.50881639 36.8890918,5.68916066 36.6078295,5.8190459 C36.3265672,5.94893115 36.0023213,6.01340656 35.6350918,6.01340656 C35.2678623,6.01340656 34.9445508,5.94893115 34.6632885,5.8190459 C34.3810918,5.68916066 34.1465508,5.50881639 33.9577967,5.27614426 C33.769977,5.04440656 33.6279443,4.76501311 33.5326328,4.43983279 C33.4363869,4.11465246 33.3868623,3.75583279 33.3821902,3.3643082 C33.377518,3.01670164 33.4205016,2.68498033 33.511141,2.36634098" id="Fill-7" fill="#FFFFFF"></path>
                                            <path d="M39.3782164,5.48517541 L39.7959049,5.48517541 C40.1584623,5.48517541 40.4873803,5.44592951 40.7835934,5.36837213 C41.0798066,5.28988033 41.3321016,5.16466721 41.5395443,4.99366721 C41.7469869,4.82266721 41.9086426,4.60027377 42.023577,4.32648689 C42.1385115,4.05176557 42.1964459,3.71910984 42.1964459,3.32758525 C42.1964459,2.93606066 42.1413148,2.60714262 42.0310525,2.34083115 C41.9217246,2.07451967 41.7731508,1.85960164 41.5872,1.6979459 C41.4012492,1.53629016 41.181659,1.42042131 40.9265607,1.34940492 C40.6723967,1.27838852 40.403282,1.24381475 40.1192164,1.24381475 L39.3782164,1.24381475 L39.3782164,5.48517541 Z M38.8717574,0.802765574 L40.1407082,0.802765574 C40.6013803,0.802765574 40.9929049,0.865372131 41.315282,0.98965082 C41.6385934,1.11486393 41.9030361,1.29147049 42.1086098,1.51853607 C42.3141836,1.74560164 42.4646262,2.01658525 42.5599377,2.32961803 C42.6552492,2.64265082 42.7029049,2.98558525 42.7029049,3.35748689 C42.7029049,3.82189672 42.6290852,4.21715902 42.4823803,4.54233934 C42.3356754,4.86751967 42.1310361,5.13289672 41.8703311,5.33940492 C41.6086918,5.54404426 41.2984623,5.69355246 40.9415115,5.78606066 C40.5845607,5.87950328 40.1930361,5.92622459 39.7669377,5.92622459 L38.8717574,5.92622459 L38.8717574,0.802765574 Z" id="Fill-9" fill="#FFFFFF"></path>
                                            <polygon id="Fill-11" fill="#FFFFFF" points="43.8112279 0.802952459 46.3210967 0.802952459 46.3210967 1.24400164 44.3176869 1.24400164 44.3176869 3.07080492 46.2183098 3.07080492 46.2183098 3.51091967 44.3176869 3.51091967 44.3176869 5.4853623 46.4089328 5.4853623 46.4089328 5.92547705 43.8112279 5.92547705"></polygon>
                                            <path d="M47.3409295,5.2725 C47.493241,5.36968033 47.6595689,5.44536885 47.8399131,5.49582787 C48.0221262,5.54815574 48.2314377,5.57338525 48.4715852,5.57338525 C48.6285689,5.57338525 48.7762082,5.55282787 48.9163721,5.51077869 C49.0546672,5.46966393 49.177077,5.40612295 49.2826672,5.32015574 C49.387323,5.23512295 49.4704869,5.12579508 49.532159,4.99310656 C49.5928967,4.86228689 49.6237328,4.70530328 49.6237328,4.52402459 C49.6237328,4.35769672 49.5667328,4.21192623 49.4517984,4.08671311 C49.3368639,3.96243443 49.190159,3.84563115 49.0144869,3.73443443 C48.8388148,3.62417213 48.6500607,3.51764754 48.4500934,3.41205738 C48.2491918,3.30646721 48.0613721,3.19059836 47.8847656,3.06351639 C47.7090934,2.93643443 47.5623885,2.79253279 47.4474541,2.63087705 C47.3325197,2.46922131 47.2755197,2.27579508 47.2755197,2.05059836 C47.2755197,1.84502459 47.3175689,1.66094262 47.3997984,1.49648361 C47.4829623,1.33202459 47.5978967,1.19186066 47.7455361,1.07505738 C47.892241,0.957319672 48.0641754,0.867614754 48.2622738,0.806877049 C48.4603721,0.745204918 48.6724869,0.714368852 48.8976836,0.714368852 C49.0247656,0.714368852 49.1798803,0.726516393 49.3630279,0.748008197 C49.5461754,0.770434426 49.7265197,0.814352459 49.9021918,0.8835 L49.8218311,1.34604098 C49.7097,1.2825 49.5686016,1.23484426 49.3994705,1.20307377 C49.2312738,1.17130328 49.0612082,1.15541803 48.8902082,1.15541803 C48.7584541,1.15541803 48.6257656,1.16943443 48.493077,1.19933607 C48.361323,1.22830328 48.2426508,1.27782787 48.1379951,1.34604098 C48.0324049,1.4142541 47.9464377,1.50489344 47.8810279,1.61795902 C47.8146836,1.73009016 47.7819787,1.86931967 47.7819787,2.03564754 C47.7819787,2.20758197 47.8389787,2.35428689 47.9539131,2.47669672 C48.0688475,2.59910656 48.2155525,2.71310656 48.3912246,2.8177623 C48.5668967,2.92241803 48.7556508,3.02613934 48.9565525,3.12612295 C49.1565197,3.22704098 49.3452738,3.34290984 49.5209459,3.47466393 C49.696618,3.60641803 49.843323,3.75966393 49.9582574,3.93253279 C50.0731918,4.10727049 50.1301918,4.31845082 50.1301918,4.56794262 C50.1301918,4.82677869 50.0806672,5.04917213 49.9797492,5.23231967 C49.8797656,5.41546721 49.7489459,5.56497541 49.5872902,5.67990984 C49.4256344,5.79577869 49.2443557,5.87894262 49.0434541,5.93313934 C48.8434869,5.98733607 48.6453885,6.0135 48.4500934,6.0135 C48.2006016,6.0135 47.9791426,5.9920082 47.7857164,5.94809016 C47.5922902,5.90417213 47.4268967,5.85184426 47.2895361,5.79390984 L47.3409295,5.2725 Z" id="Fill-13" fill="#FFFFFF"></path>
                                            <polygon id="Fill-15" fill="#FFFFFF" points="51.2163689 0.802952459 51.7228279 0.802952459 51.7228279 3.09977213 54.0280574 0.802952459 54.6877623 0.802952459 52.2077951 3.21750984 54.9008115 5.92547705 54.2037295 5.92547705 51.7228279 3.36421475 51.7228279 5.92547705 51.2163689 5.92547705"></polygon>
                                            <path d="M22.1807557,9.44275082 L21.1519525,12.0114885 L23.2086246,12.0114885 L22.1807557,9.44275082 Z M21.8172639,8.74473443 L22.5937721,8.74473443 L24.7765918,13.9270623 L23.970182,13.9270623 L23.4459689,12.6198 L20.9155426,12.6198 L20.3903951,13.9270623 L19.6138869,13.9270623 L21.8172639,8.74473443 Z" id="Fill-17" fill="#FFFFFF"></path>
                                            <g id="Group-21" transform="translate(25.229508, 8.409836)">
                                                <mask id="mask-2" fill="white">
                                                    <use xlink:href="#path-1"></use>
                                                </mask>
                                                <g id="Clip-20"></g>
                                                <path d="M4.31078852,3.37178361 C4.31078852,4.10437377 4.13698525,4.66035738 3.78937869,5.0388 C3.44177213,5.41724262 2.94746066,5.60693115 2.30550984,5.60693115 C1.66542787,5.60693115 1.17111639,5.41724262 0.823509836,5.0388 C0.475903279,4.66035738 0.3021,4.10437377 0.3021,3.37178361 L0.3021,0.334898361 L1.04123115,0.334898361 L1.04123115,3.27460328 C1.04123115,3.52222623 1.06178852,3.74835738 1.1038377,3.95486557 C1.14588689,4.16043934 1.21596885,4.3370459 1.31501803,4.48468525 C1.41313279,4.63419344 1.54395246,4.74912787 1.70747705,4.83135738 C1.87006721,4.91171803 2.07003443,4.95283279 2.30550984,4.95283279 C2.5428541,4.95283279 2.74282131,4.91171803 2.90541148,4.83135738 C3.06800164,4.74912787 3.19882131,4.63419344 3.29787049,4.48468525 C3.39598525,4.3370459 3.46700164,4.16043934 3.50905082,3.95486557 C3.55016557,3.74835738 3.57072295,3.52222623 3.57072295,3.27460328 L3.57072295,0.334898361 L4.31078852,0.334898361 L4.31078852,3.37178361 Z" id="Fill-19" fill="#FFFFFF" mask="url(#mask-2)"></path>
                                            </g>
                                            <polygon id="Fill-22" fill="#FFFFFF" points="31.8928082 9.39808525 30.2874639 9.39808525 30.2874639 8.74492131 34.238218 8.74492131 34.238218 9.39808525 32.6319393 9.39808525 32.6319393 13.9272492 31.8928082 13.9272492"></polygon>
                                            <path d="M35.5949115,12.0854951 C35.6612557,12.3284459 35.7640426,12.5452328 35.9023377,12.7349213 C36.0406328,12.9255443 36.2163049,13.0778557 36.431223,13.1927902 C36.6452066,13.3067902 36.9003049,13.3628557 37.196518,13.3628557 C37.4917967,13.3628557 37.7478295,13.3067902 37.9618131,13.1927902 C38.1767311,13.0778557 38.3524033,12.9255443 38.4916328,12.7349213 C38.6289934,12.5452328 38.7308459,12.3284459 38.7981246,12.0854951 C38.8644689,11.8434787 38.8981082,11.5939869 38.8981082,11.3360852 C38.8981082,11.0735115 38.8616656,10.820282 38.7906492,10.5745279 C38.7196328,10.3297082 38.6121738,10.1138557 38.4720098,9.92416721 C38.3318459,9.73634754 38.1552393,9.58683934 37.944059,9.47564262 C37.7310098,9.3644459 37.4824525,9.30838033 37.196518,9.30838033 C36.9105836,9.30838033 36.6620262,9.3644459 36.448977,9.47564262 C36.2368623,9.58683934 36.0611902,9.73634754 35.9210262,9.92416721 C35.7799279,10.1138557 35.6734033,10.3297082 35.6023869,10.5745279 C35.5313705,10.820282 35.4958623,11.0735115 35.4958623,11.3360852 C35.4958623,11.5939869 35.5285672,11.8434787 35.5949115,12.0854951 M34.8772721,10.2671016 C34.9884689,9.94005246 35.151059,9.65692131 35.365977,9.41957705 C35.5799607,9.18316721 35.8406656,8.99534754 36.146223,8.85985574 C36.4517803,8.72342951 36.8021902,8.65521639 37.196518,8.65521639 C37.5861738,8.65521639 37.9347148,8.72342951 38.2430754,8.85985574 C38.5514361,8.99534754 38.812141,9.18316721 39.027059,9.41957705 C39.241977,9.65692131 39.4045672,9.94005246 39.5148295,10.2671016 C39.6260262,10.5932164 39.6820918,10.9492328 39.6820918,11.3360852 C39.6820918,11.732282 39.6260262,12.0939049 39.5148295,12.4200197 C39.4045672,12.7470689 39.2429115,13.0292656 39.0307967,13.2666098 C38.818682,13.5048885 38.5589115,13.6889705 38.2505508,13.8188557 C37.9421902,13.9506098 37.5908459,14.0160197 37.196518,14.0160197 C36.8021902,14.0160197 36.4508459,13.9506098 36.1424852,13.8188557 C35.8341246,13.6889705 35.5743541,13.5048885 35.3622393,13.2666098 C35.1491902,13.0292656 34.9884689,12.7470689 34.8772721,12.4200197 C34.7660754,12.0939049 34.7109443,11.732282 34.7109443,11.3360852 C34.7109443,10.9492328 34.7660754,10.5932164 34.8772721,10.2671016" id="Fill-24" fill="#FFFFFF"></path>
                                            <g id="Group-28" transform="translate(40.180328, 8.409836)">
                                                <mask id="mask-4" fill="white">
                                                    <use xlink:href="#path-3"></use>
                                                </mask>
                                                <g id="Clip-27"></g>
                                                <path d="M4.1173623,1.18812295 C3.79124754,0.995631148 3.43616557,0.89845082 3.05211639,0.89845082 C2.7568377,0.89845082 2.48678852,0.949844262 2.24196885,1.05169672 C1.99808361,1.15261475 1.78877213,1.29371311 1.6131,1.4749918 C1.4383623,1.65533607 1.30380492,1.86931967 1.2103623,2.11694262 C1.11691967,2.36456557 1.06926393,2.63461475 1.06926393,2.92615574 C1.06926393,3.23264754 1.12065738,3.51017213 1.22064098,3.75779508 C1.32249344,4.00541803 1.46172295,4.21753279 1.64019836,4.39694262 C1.81680492,4.57448361 2.02424754,4.71184426 2.26065738,4.80809016 C2.49800164,4.90527049 2.74842787,4.95292623 3.01473934,4.95292623 C3.10911639,4.95292623 3.20723115,4.94638525 3.31188689,4.93517213 C3.41467377,4.92209016 3.51652623,4.90527049 3.61837869,4.88284426 C3.71929672,4.86041803 3.81554262,4.8342541 3.90618197,4.80435246 C3.99775574,4.77538525 4.07531311,4.74081148 4.1388541,4.70063115 L4.18370656,5.42107377 C3.98654262,5.50517213 3.78003443,5.5575 3.56231311,5.57712295 C3.34552623,5.5967459 3.16144426,5.60702459 3.00819836,5.60702459 C2.59891967,5.60702459 2.22701803,5.54348361 1.89062459,5.41733607 C1.5561,5.29118852 1.26923115,5.10990984 1.03282131,4.87443443 C0.795477049,4.63989344 0.612329508,4.35582787 0.481509836,4.02130328 C0.35162459,3.68771311 0.285280328,3.31394262 0.285280328,2.90372951 C0.285280328,2.50286066 0.353493443,2.13936885 0.488985246,1.81231967 C0.625411475,1.48527049 0.8151,1.20681148 1.05898525,0.973204918 C1.30287049,0.740532787 1.5916082,0.561122951 1.92426393,0.43497541 C2.25691967,0.308827869 2.62041148,0.245286885 3.01473934,0.245286885 C3.21750984,0.245286885 3.41467377,0.262106557 3.60716557,0.293877049 C3.79965738,0.325647541 3.9893459,0.384516393 4.17623115,0.467680328 L4.1173623,1.18812295 Z" id="Fill-26" fill="#FFFFFF" mask="url(#mask-4)"></path>
                                            </g>
                                            <path d="M47.2487951,9.44275082 L46.2209262,12.0114885 L48.2775984,12.0114885 L47.2487951,9.44275082 Z M46.8862377,8.74473443 L47.6627459,8.74473443 L49.8455656,13.9270623 L49.0391557,13.9270623 L48.5140082,12.6198 L45.983582,12.6198 L45.4593689,13.9270623 L44.6828607,13.9270623 L46.8862377,8.74473443 Z" id="Fill-29" fill="#FFFFFF"></path>
                                            <path d="M51.2875721,13.2735246 L52.0650148,13.2735246 C52.701359,13.2735246 53.1891295,13.1156066 53.5292607,12.7988361 C53.8693918,12.4811311 54.0394574,11.989623 54.0394574,11.3205738 C54.0394574,11.0187541 53.9918016,10.7496393 53.8955557,10.5113607 C53.7993098,10.2740164 53.6666213,10.0721803 53.4956213,9.90585246 C53.3264902,9.74045902 53.126523,9.61431148 52.8966541,9.52740984 C52.6677197,9.4405082 52.4200967,9.39845902 52.1537852,9.39845902 L51.2875721,9.39845902 L51.2875721,13.2735246 Z M50.548441,8.74436066 L52.0724902,8.74436066 C52.4565393,8.74436066 52.815359,8.80229508 53.1480148,8.91909836 C53.4816049,9.03496721 53.7722115,9.20222951 54.0217033,9.41995082 C54.2693262,9.63767213 54.4655557,9.90398361 54.6094574,10.2179508 C54.7524246,10.531918 54.823441,10.8898033 54.823441,11.2916066 C54.823441,11.7270492 54.7599,12.1092295 54.6309492,12.4381475 C54.5029328,12.768 54.3207197,13.0427213 54.0843098,13.2623115 C53.8469656,13.4837705 53.5591623,13.6482295 53.2180967,13.7603607 C52.8779656,13.8715574 52.4957852,13.9266885 52.0724902,13.9266885 L50.548441,13.9266885 L50.548441,8.74436066 Z" id="Fill-31" fill="#FFFFFF"></path>
                                            <g id="Group-35" transform="translate(55.131148, 0.000000)">
                                                <mask id="mask-6" fill="white">
                                                    <use xlink:href="#path-5"></use>
                                                </mask>
                                                <g id="Clip-34"></g>
                                                <path d="M0.788645902,1.28310164 C0.814645902,1.28310164 0.839645902,1.28110164 0.860645902,1.27610164 C0.882645902,1.27210164 0.902645902,1.26010164 0.923645902,1.24010164 C0.936645902,1.22610164 0.946645902,1.21110164 0.953645902,1.19210164 C0.959645902,1.17510164 0.963645902,1.15610164 0.963645902,1.13710164 C0.963645902,1.11410164 0.958645902,1.09410164 0.949645902,1.07610164 C0.940645902,1.05710164 0.927645902,1.04210164 0.908645902,1.02910164 C0.891645902,1.01610164 0.873645902,1.01010164 0.855645902,1.00710164 C0.839645902,1.00510164 0.820645902,1.00410164 0.800645902,1.00410164 L0.604645902,1.00410164 L0.604645902,1.28310164 L0.788645902,1.28310164 Z M0.966645902,1.70210164 L0.821645902,1.36310164 L0.604645902,1.36310164 L0.604645902,1.70210164 L0.506645902,1.70210164 L0.506645902,0.919101639 L0.800645902,0.919101639 C0.831645902,0.919101639 0.862645902,0.923101639 0.892645902,0.929101639 C0.923645902,0.934101639 0.951645902,0.947101639 0.977645902,0.968101639 C1.0046459,0.987101639 1.0246459,1.01210164 1.0396459,1.04310164 C1.0546459,1.07310164 1.0606459,1.10510164 1.0606459,1.13810164 C1.0606459,1.18410164 1.0486459,1.22610164 1.0216459,1.26310164 C0.996645902,1.30210164 0.960645902,1.32610164 0.915645902,1.34010164 L1.0686459,1.70210164 L0.966645902,1.70210164 Z" id="Fill-33" fill="#FFFFFF" mask="url(#mask-6)"></path>
                                            </g>
                                            <path d="M55.8885,0.764640984 C55.5820082,0.764640984 55.331582,1.01413279 55.331582,1.32155902 C55.331582,1.62805082 55.5820082,1.87754262 55.8885,1.87754262 C56.1959262,1.87754262 56.445418,1.62805082 56.445418,1.32155902 C56.445418,1.01413279 56.1959262,0.764640984 55.8885,0.764640984 M55.8885,1.98126393 C55.5250082,1.98126393 55.2287951,1.68411639 55.2287951,1.32155902 C55.2287951,0.957132787 55.5250082,0.661854098 55.8885,0.661854098 C56.2529262,0.661854098 56.5482049,0.957132787 56.5482049,1.32155902 C56.5482049,1.68411639 56.2529262,1.98126393 55.8885,1.98126393" id="Fill-36" fill="#FFFFFF"></path>
                                            <path d="M55.7829,9.2074377 C55.8089,9.2074377 55.8339,9.2054377 55.8549,9.2004377 C55.8769,9.1964377 55.8969,9.1844377 55.9169,9.1644377 C55.9299,9.1504377 55.9409,9.1354377 55.9469,9.1164377 C55.9539,9.0994377 55.9569,9.0804377 55.9569,9.0614377 C55.9569,9.0384377 55.9529,9.0184377 55.9439,9.0004377 C55.9349,8.9814377 55.9219,8.9664377 55.9019,8.9534377 C55.8849,8.9404377 55.8679,8.9344377 55.8499,8.9324377 C55.8339,8.9294377 55.8139,8.9284377 55.7939,8.9284377 L55.5979,8.9284377 L55.5979,9.2074377 L55.7829,9.2074377 Z M55.9609,9.6264377 L55.8149,9.2874377 L55.5979,9.2874377 L55.5979,9.6264377 L55.5009,9.6264377 L55.5009,8.8444377 L55.7939,8.8444377 C55.8259,8.8444377 55.8569,8.8474377 55.8869,8.8534377 C55.9169,8.8584377 55.9449,8.8714377 55.9719,8.8924377 C55.9989,8.9114377 56.0189,8.9364377 56.0339,8.9674377 C56.0479,8.9974377 56.0549,9.0294377 56.0549,9.0624377 C56.0549,9.1084377 56.0429,9.1504377 56.0159,9.1884377 C55.9909,9.2264377 55.9549,9.2504377 55.9089,9.2644377 L56.0629,9.6264377 L55.9609,9.6264377 Z" id="Fill-38" fill="#FFFFFF"></path>
                                            <path d="M55.7517,8.68904262 C55.4442738,8.68904262 55.194782,8.93853443 55.194782,9.24596066 C55.194782,9.55245246 55.4442738,9.80194426 55.7517,9.80194426 C56.0581918,9.80194426 56.308618,9.55245246 56.308618,9.24596066 C56.308618,8.93853443 56.0581918,8.68904262 55.7517,8.68904262 M55.7517,9.90566557 C55.3872738,9.90566557 55.0919951,9.60851803 55.0919951,9.24596066 C55.0919951,8.88153443 55.3872738,8.58625574 55.7517,8.58625574 C56.1151918,8.58625574 56.4114049,8.88153443 56.4114049,9.24596066 C56.4114049,9.60851803 56.1151918,9.90566557 55.7517,9.90566557" id="Fill-40" fill="#FFFFFF"></path>
                                            <polygon id="Fill-42" fill="#FFFFFF" points="9.60618197 11.7058377 9.53516557 11.7058377 7.70742787 11.7058377 8.06811639 13.7195262 9.89211639 13.5120836 9.63514918 11.7058377"></polygon>
                                            <polygon id="Fill-44" fill="#FFFFFF" points="11.4996098 11.7058377 9.72980656 11.7058377 9.9166918 13.0224443 9.97649508 13.4448049"></polygon>
                                            <polygon id="Fill-46" fill="#FFFFFF" points="3.18377705 11.7077066 1.08785902 11.7049033 1.08785902 11.7067721 1.08692459 11.7067721 1.23830164 13.4905918 2.69787541 13.7176574 3.18938361 11.7077066 3.18844918 11.7077066"></polygon>
                                            <polygon id="Fill-48" fill="#FFFFFF" points="3.8380623 8.61606393 4.34825902 6.42203115 5.62094754 0.953768852 0.964701639 9.75886721 2.30466885 9.22530984"></polygon>
                                            <polygon id="Fill-50" fill="#FFFFFF" points="8.88069344 6.61125246 5.84567705 0.897236066 6.0325623 1.95126885 6.99408689 7.36159672"></polygon>
                                            <polygon id="Fill-52" fill="#FFFFFF" points="1.08954098 11.6118344 1.09327869 11.6118344 3.21162295 11.6118344 3.81432787 8.72726066 0.913868852 9.8831459 1.07832787 11.6118344"></polygon>
                                            <polygon id="Fill-54" fill="#FFFFFF" points="8.90349344 6.70245246 8.06624754 7.0351082 7.01221475 7.4556 7.01128033 7.45653443 7.6906082 11.6128623 9.53516557 11.6128623 9.60618197 11.6128623 9.62300164 11.6128623 8.91470656 6.69871475"></polygon>
                                            <polygon id="Fill-56" fill="#FFFFFF" points="9.06505574 6.9616623 9.03982623 6.9121377 9.17438361 7.85123607 9.71635082 11.6132361 11.5254 11.6132361 9.9256623 8.57728525 9.06412131 6.95792459"></polygon>
                                            <polygon id="Fill-58" fill="#FFFFFF" points="5.4834 7.96177869 6.9046623 7.39738525 5.74130164 0.847057377 3.9444 8.57382787"></polygon>
                                            <polygon id="Fill-60" fill="#FFFFFF" points="6.92335082 7.49998525 3.91730164 8.68857541 3.30712131 11.6114607 3.31459672 11.6114607 5.50395738 11.6123951 7.5961377 11.6123951"></polygon>
                                            <polygon id="Fill-62" fill="#FFFFFF" points="0.967318033 11.7021934 0.403859016 11.6863082 0.0123344262 11.6760295 1.1336459 13.3645377 1.10374426 13.0066525 0.991613115 11.7031279"></polygon>
                                            <g id="Group-66" transform="translate(0.000000, 9.344262)" fill="#FFFFFF">
                                                <polygon id="Fill-64" points="0.83042459 0.666993443 -0.000280327869 2.23776393 0.983670492 2.26579672"></polygon>
                                            </g>
                                        </g>
                                    </g>
                                </g>
                            </g>
                        </g>
                    </g>
                </g>
            </g>
        </g>
    </g>
</svg>