<?xml version="1.0" encoding="UTF-8"?>
<svg width="25px" height="23px" viewBox="0 0 25 23" version="1.1" xmlns="http://www.w3.org/2000/svg" xmlns:xlink="http://www.w3.org/1999/xlink">
    <title>Bridge-Icon</title>
    <g id="Welcome" stroke="none" stroke-width="1" fill="none" fill-rule="evenodd">
        <g id="MADE_Website-Design_Concept_HOME-PAGE_v1" transform="translate(-605.000000, -7545.000000)" fill="#FFFFFF">
            <g id="Footer" transform="translate(0.000000, 6960.000000)">
                <g id="Content" transform="translate(298.000000, 233.000000)">
                    <g id="My-Qualifications" transform="translate(0.000000, 220.000000)">
                        <g id="Logos" transform="translate(32.555556, 132.000000)">
                            <g id="Group-25" transform="translate(113.444444, 0.000000)">
                                <g id="Bridge-Icon" transform="translate(162.000000, 0.000000)">
                                    <path d="M1.01326658,21.9887369 L21.9905715,21.9887369 L21.9905715,1.01318205 L1.01326658,1.01318205 L1.01326658,21.9887369 Z M0,23 L23,23 L23,0 L0,0 L0,23 Z" id="Fill-18"></path>
                                    <path d="M7.48994462,11.5930347 L8.67735354,11.5930347 C9.92771787,11.5930347 10.336928,12.1713697 10.336928,13.0693594 C10.336928,14.1816841 9.66365491,14.5475318 8.50072865,14.5475318 C7.94462256,14.5475318 7.6176042,14.5179683 7.48994462,14.5179683 L7.48994462,11.5930347 Z M7.48994462,7.47817237 C7.62984553,7.46339065 8.05829204,7.44860893 8.56368406,7.44860893 C9.62518216,7.44860893 10.0990965,7.83662917 10.0990965,8.78081178 C10.0990965,9.52728883 9.75808802,10.1148623 9.25444477,10.1148623 L7.48994462,10.1148623 L7.48994462,7.47817237 Z M8.41329059,15.9961407 C10.5974934,15.9961407 12,14.8339277 12,13.1469634 C12,11.7593291 11.4438939,10.8724257 10.6726902,10.6285272 L10.6726902,10.5989638 C11.3931798,10.279309 11.5872923,9.62521775 11.5872923,8.52952247 C11.5872923,7.35622315 11.1658409,6 8.57767415,6 C7.57913145,6 6.56834742,6.01662944 6.07519674,6.03141116 C6.01224133,6.04619289 6,6.07760405 6,6.16814211 L6,15.8427803 C6,15.9037549 6.01224133,15.9499478 6.08918683,15.9647295 C6.54386476,15.9795112 7.48994462,16.0109224 8.41329059,15.9961407 L8.41329059,15.9961407 Z" id="Fill-19"></path>
                                    <path d="M14.0824891,15.8720534 C14.0824891,15.9670441 14.1116001,16 14.2051712,16 L15.8270706,16 C15.9206418,16 15.9497528,15.9670441 15.9497528,15.8720534 L15.9497528,9.85856282 C16.5797983,9.61817828 16.99567,9.64337989 17.8773179,9.67633583 C17.9688096,9.67633583 18,9.64337989 18,9.5638979 L18,8.17780965 C18,8.04986304 17.9854445,8.03241578 17.9085082,8.0169071 C17.8461275,8.00139842 17.7691912,7.99752125 17.7068105,8.00139842 C15.5921032,8.10802059 14.0970446,8.62562278 14.0970446,8.62562278 C14.0201083,8.62562278 13.988918,8.65857872 14.0034735,8.72255203 C14.0512987,9.24984714 14.0824891,9.78101942 14.0824891,10.4847258 L14.0824891,15.8720534 Z" id="Fill-20"></path>
                                </g>
                            </g>
                        </g>
                    </g>
                </g>
            </g>
        </g>
    </g>
</svg>