<?xml version="1.0" encoding="UTF-8"?>
<svg width="24px" height="15px" viewBox="0 0 24 15" version="1.1" xmlns="http://www.w3.org/2000/svg" xmlns:xlink="http://www.w3.org/1999/xlink">
    <title>CampaignMonitor-Icon</title>
    <g id="Welcome" stroke="none" stroke-width="1" fill="none" fill-rule="evenodd">
        <g id="MADE_Website-Design_Concept_HOME-PAGE_v1" transform="translate(-469.000000, -7580.000000)" fill="#FFFFFF">
            <g id="Footer" transform="translate(0.000000, 6960.000000)">
                <g id="Content" transform="translate(298.000000, 233.000000)">
                    <g id="My-Qualifications" transform="translate(0.000000, 220.000000)">
                        <g id="Logos" transform="translate(32.555556, 132.000000)">
                            <g id="Group-9" transform="translate(0.444444, 31.000000)">
                                <g id="CampaignMonitor-Icon" transform="translate(139.000000, 4.000000)">
                                    <path d="M20.6730511,0.152089528 L0,14.6411493 C0.151545699,14.8575696 0.402889785,15 0.689348118,15 L21.1572581,15 C21.6211358,15 22,14.6226518 22,14.1565159 L22,0.829096534 C21.9963038,0.666318893 21.9464046,0.503541253 21.8466062,0.359261071 C21.578629,-0.0217865877 21.0556116,-0.114273884 20.6730511,0.152089528" id="Fill-99"></path>
                                    <path d="M1.34810364,0.150922146 C0.961321817,-0.113826211 0.428088622,-0.0207078232 0.155839279,0.355417429 C0.0544498686,0.496007936 0.00375516335,0.658508652 0,0.819183517 L0,14 L10,6.03381323 L1.34810364,0.150922146 Z" id="Fill-100"></path>
                                </g>
                            </g>
                        </g>
                    </g>
                </g>
            </g>
        </g>
    </g>
</svg>