<?xml version="1.0" encoding="UTF-8"?>
<svg width="24px" height="23px" viewBox="0 0 24 23" version="1.1" xmlns="http://www.w3.org/2000/svg" xmlns:xlink="http://www.w3.org/1999/xlink">
    <title>Excel-Icon</title>
    <defs>
        <polygon id="path-1" points="0.000530769231 0.0247692308 21.7013846 0.0247692308 21.7013846 21.2307692 0.000530769231 21.2307692"></polygon>
        <polygon id="path-3" points="0 21.9757615 21.7013846 21.9757615 21.7013846 0.769761538 0 0.769761538"></polygon>
    </defs>
    <g id="Welcome" stroke="none" stroke-width="1" fill="none" fill-rule="evenodd">
        <g id="MADE_Website-Design_Concept_HOME-PAGE_v1" transform="translate(-384.000000, -7545.000000)">
            <g id="Footer" transform="translate(0.000000, 6960.000000)">
                <g id="Content" transform="translate(298.000000, 233.000000)">
                    <g id="My-Qualifications" transform="translate(0.000000, 220.000000)">
                        <g id="Logos" transform="translate(32.555556, 132.000000)">
                            <g id="Excel-Icon" transform="translate(54.444444, 0.000000)">
                                <g id="Group-3" transform="translate(0.000000, 0.744992)">
                                    <mask id="mask-2" fill="white">
                                        <use xlink:href="#path-1"></use>
                                    </mask>
                                    <g id="Clip-2"></g>
                                    <path d="M12.8168385,16.7919462 L14.7895308,16.7919462 L14.7895308,15.0651769 L12.8168385,15.0651769 L12.8168385,14.0797154 L14.7895308,14.0797154 L14.7895308,12.3529462 L12.8168385,12.3529462 L12.8168385,11.3674846 L14.7895308,11.3674846 L14.7895308,9.64071538 L12.8168385,9.64071538 L12.8168385,8.65525385 L14.7895308,8.65525385 L14.7895308,6.92848462 L12.8168385,6.92848462 L12.8168385,5.94302308 L14.7895308,5.94302308 L14.7895308,4.21625385 L12.8168385,4.21625385 L12.8168385,2.73717692 L20.9535308,2.73717692 L20.9535308,18.2710231 L12.8168385,18.2710231 L12.8168385,16.7919462 Z M7.26145385,14.4866385 C6.84214615,13.4587154 6.33260769,12.4644077 6.03183846,11.3887154 C5.69568462,12.3901 5.21799231,13.3348692 4.83406923,14.3167923 C4.29268462,14.3079462 3.75306923,14.2867154 3.21345385,14.2637154 C3.84683846,13.0234846 4.45899231,11.7744077 5.11183846,10.5412538 C4.5563,9.27094615 3.94768462,8.02540769 3.37622308,6.76394615 C3.91760769,6.7321 4.46076154,6.70025385 5.00391538,6.67017692 C5.37014615,7.63440769 5.77353077,8.58625385 6.07606923,9.57525385 C6.40160769,8.5261 6.88637692,7.54063846 7.30391538,6.52686923 C7.86122308,6.48794615 8.4203,6.45256154 8.98114615,6.42602308 C8.32299231,7.77417692 7.6613,9.1241 6.99076154,10.4669462 C7.66837692,11.8487154 8.36191538,13.2181 9.04306923,14.5998692 C8.44860769,14.5644846 7.85591538,14.5291 7.26145385,14.4866385 L7.26145385,14.4866385 Z M21.5037615,18.9079462 C21.6223,18.8424846 21.7036846,18.7097923 21.7019437,18.4621 C21.7019437,18.4621 21.6842231,17.0290231 21.6966077,16.3107154 C21.6930692,12.0327154 21.6895308,7.75471538 21.7001462,3.47494615 C21.6930692,3.26263846 21.7089923,2.88579231 21.6966077,2.66817692 C21.6718385,2.24356154 21.5444538,2.07371538 21.1269154,2.02240769 C20.9128385,1.99586923 20.4316077,1.99940769 20.2210692,1.99056154 C17.7529923,2.00294615 15.2849154,1.99763846 12.8168385,1.99763846 L12.8168385,0.0231769231 L0.000530769231,1.99940769 L0.000530769231,19.2582538 L12.8168385,21.2309462 L12.8168385,19.0105615 C15.3733769,19.0070231 17.9316846,19.0194077 20.4846846,19.0105615 C20.7677615,18.9999462 21.2649154,19.0388692 21.5037615,18.9079462 L21.5037615,18.9079462 Z" id="Fill-1" fill="#FFFFFF" mask="url(#mask-2)"></path>
                                </g>
                                <mask id="mask-4" fill="white">
                                    <use xlink:href="#path-3"></use>
                                </mask>
                                <g id="Clip-5"></g>
                                <polygon id="Fill-4" fill="#FFFFFF" mask="url(#mask-4)" points="15.7762308 6.68783846 19.228 6.68783846 19.228 4.96106923 15.7762308 4.96106923"></polygon>
                                <polygon id="Fill-6" fill="#FFFFFF" mask="url(#mask-4)" points="15.7762308 9.40006923 19.228 9.40006923 19.228 7.6733 15.7762308 7.6733"></polygon>
                                <polygon id="Fill-7" fill="#FFFFFF" mask="url(#mask-4)" points="15.7762308 12.1123 19.228 12.1123 19.228 10.3855308 15.7762308 10.3855308"></polygon>
                                <polygon id="Fill-8" fill="#FFFFFF" mask="url(#mask-4)" points="15.7762308 14.8245308 19.228 14.8245308 19.228 13.0977615 15.7762308 13.0977615"></polygon>
                                <polygon id="Fill-9" fill="#FFFFFF" mask="url(#mask-4)" points="15.7762308 17.5367615 19.228 17.5367615 19.228 15.8099923 15.7762308 15.8099923"></polygon>
                            </g>
                        </g>
                    </g>
                </g>
            </g>
        </g>
    </g>
</svg>