<?xml version="1.0" encoding="UTF-8"?>
<svg width="36px" height="22px" viewBox="0 0 36 22" version="1.1" xmlns="http://www.w3.org/2000/svg" xmlns:xlink="http://www.w3.org/1999/xlink">
    <title>HTML5-CSS3-Icons</title>
    <g id="Welcome" stroke="none" stroke-width="1" fill="none" fill-rule="evenodd">
        <g id="MADE_Website-Design_Concept_HOME-PAGE_v1" transform="translate(-379.000000, -7576.000000)">
            <g id="Footer" transform="translate(0.000000, 6960.000000)">
                <g id="Content" transform="translate(298.000000, 233.000000)">
                    <g id="My-Qualifications" transform="translate(0.000000, 220.000000)">
                        <g id="Logos" transform="translate(32.555556, 132.000000)">
                            <g id="Group-9" transform="translate(0.444444, 31.000000)">
                                <g id="HTML5-CSS3-Icons" transform="translate(49.000000, 0.000000)">
                                    <path d="M0,4.21653684 L1.38147368,19.7259053 L7.58915789,21.4491684 L13.8093684,19.7241158 L15.1962105,4.21653684 L0,4.21653684 Z M2.87389474,7.89748421 L2.82557895,7.38569474 L7.59094737,7.38569474 L7.59631579,7.38569474 L7.59631579,5.48348421 L13.8093684,5.48348421 L12.6247368,18.7363263 L7.59631579,20.1321158 L7.59631579,18.1565368 L11.4902105,17.0774842 L11.5188421,16.7553789 L11.9662105,11.7466421 L12.0127368,11.2366421 L11.5009474,11.2366421 L7.59631579,11.2366421 L7.59631579,9.28790526 L12.1791579,9.28790526 L12.1845263,9.28790526 L12.2238947,8.86201053 L12.3115789,7.89748421 L12.3563158,7.38569474 L7.59631579,7.38569474 L7.59094737,7.38569474 L7.59094737,8.56853684 L7.59094737,9.28253684 L7.59094737,9.28790526 L4.90494737,9.28790526 L5.08031579,11.2366421 L7.59094737,11.2366421 L7.59094737,13.1388526 L3.34094737,13.1388526 L2.87389474,7.89748421 Z M7.59631579,16.1773789 L7.59631579,13.1388526 L9.93336842,13.1388526 L9.71326316,15.6083263 L7.59631579,16.1773789 L7.59094737,16.1791684 L7.59094737,18.1583263 L7.58915789,18.1583263 L3.69347368,17.0774842 L3.42505263,14.0908526 L4.30547368,14.0908526 L5.33621053,14.0908526 L5.46863158,15.6101158 L7.58915789,16.1791684 L7.59631579,16.1773789 Z" id="Fill-1" fill="#FFFFFF"></path>
                                    <polygon id="Fill-2" fill="#FFFFFF" points="3.26453684 0.00178947368 3.26453684 0.957368421 2.37874737 0.957368421 2.37874737 0.00178947368 1.41243158 0.00178947368 1.41243158 2.89357895 2.37874737 2.89357895 2.37874737 1.92547368 3.26453684 1.92547368 3.26453684 2.89357895 4.23264211 2.89357895 4.23264211 0.00178947368"></polygon>
                                    <polygon id="Fill-3" fill="#FFFFFF" points="4.6512 0.00178947368 4.6512 0.960947368 5.5012 0.960947368 5.5012 2.89357895 6.46930526 2.89357895 6.46930526 0.960947368 7.32109474 0.960947368 7.32109474 0.00178947368"></polygon>
                                    <polygon id="Fill-4" fill="#FFFFFF" points="9.99170526 0.00178947368 9.37254737 1.01821053 8.7516 0.00178947368 7.74412632 0.00178947368 7.74412632 2.89357895 8.69075789 2.89357895 8.69075789 1.45842105 9.35644211 2.48915789 9.37254737 2.48915789 10.0364421 1.45842105 10.0364421 2.89357895 11.0009684 2.89357895 11.0009684 0.00178947368"></polygon>
                                    <polygon id="Fill-5" fill="#FFFFFF" points="11.4814421 0.00178947368 11.4814421 2.89357895 13.8077579 2.89357895 13.8077579 1.938 12.4477579 1.938 12.4477579 0.00178947368"></polygon>
                                    <path d="M17.3389263,4.21653684 L18.7221895,19.7259053 L24.9298737,21.4491684 L31.1500842,19.7241158 L32.5351368,4.21653684 L17.3389263,4.21653684 Z M24.9370316,5.48348421 L31.1482947,5.48348421 L29.9654526,18.7363263 L24.9370316,20.1321158 L24.9370316,18.2388526 L24.9370316,18.2370632 L20.7818737,17.2295895 L20.5134526,14.2411684 L22.4353474,14.2411684 L22.5391368,15.8212737 L24.1568211,16.1219053 L24.9370316,16.2668526 L24.9370316,13.0511684 L20.3506105,13.0511684 L20.2164,11.1722211 L23.7094526,9.64043158 L24.9370316,9.1018 L24.9370316,13.0511684 L24.9388211,13.0511684 L27.4852421,13.0511684 L27.3796632,15.5779053 L25.0569263,16.2883263 L24.9370316,16.2668526 L24.9370316,18.2370632 L25.1267158,18.2853789 L29.3158737,17.1598 L29.7632421,11.2634842 L25.6080842,11.2634842 L29.9421895,9.34695789 L30.0602947,7.26937895 L24.9370316,7.26937895 L24.9370316,9.1018 L19.9998737,9.06422105 L19.8137684,7.26937895 L24.9370316,7.26937895 L24.9370316,5.48348421 Z" id="Fill-6" fill="#FFFFFF"></path>
                                    <line x1="24.9375684" y1="13.0495579" x2="20.3511474" y2="13.0495579" id="Stroke-7" stroke-linecap="round" stroke-linejoin="round"></line>
                                    <line x1="24.9375684" y1="16.2666737" x2="24.1555684" y2="16.1199368" id="Stroke-8" stroke-linecap="round" stroke-linejoin="round"></line>
                                    <polygon id="Fill-9" fill="#FFFFFF" points="23.5088526 0.000178947368 23.5088526 1.66975789 25.4736947 1.66975789 25.4736947 2.20481053 23.4498 2.20481053 23.4498 2.86154737 26.3075895 2.86154737 26.3075895 1.13291579 24.2819053 1.13291579 24.2819053 0.717757895 26.3684316 0.717757895 26.3684316 0.000178947368"></polygon>
                                    <polygon id="Fill-10" fill="#FFFFFF" points="20.3506105 0.00178947368 20.3506105 1.14884211 20.3506105 2.86136842 23.2084 2.86136842 23.2084 2.20642105 21.1827158 2.20642105 21.1827158 1.68568421 21.1827158 0.715789474 23.1511368 0.715789474 23.1511368 0.00178947368"></polygon>
                                    <polygon id="Fill-11" fill="#FFFFFF" points="26.6654842 0.000178947368 26.6654842 1.66975789 28.6321158 1.66975789 28.6321158 2.20481053 26.6064316 2.20481053 26.6064316 2.86154737 29.4660105 2.86154737 29.4660105 1.13291579 27.4403263 1.13291579 27.4403263 0.717757895 29.5232737 0.717757895 29.5232737 0.000178947368"></polygon>
                                </g>
                            </g>
                        </g>
                    </g>
                </g>
            </g>
        </g>
    </g>
</svg>