<?xml version="1.0" encoding="UTF-8"?>
<svg width="25px" height="23px" viewBox="0 0 25 23" version="1.1" xmlns="http://www.w3.org/2000/svg" xmlns:xlink="http://www.w3.org/1999/xlink">
    <title>Illustrator-Icon</title>
    <g id="Welcome" stroke="none" stroke-width="1" fill="none" fill-rule="evenodd">
        <g id="MADE_Website-Design_Concept_HOME-PAGE_v1" transform="translate(-470.000000, -7545.000000)" fill="#FFFFFF">
            <g id="Footer" transform="translate(0.000000, 6960.000000)">
                <g id="Content" transform="translate(298.000000, 233.000000)">
                    <g id="My-Qualifications" transform="translate(0.000000, 220.000000)">
                        <g id="Logos" transform="translate(32.555556, 132.000000)">
                            <g id="Group-25" transform="translate(113.444444, 0.000000)">
                                <g id="Illustrator-Icon" transform="translate(27.000000, 0.000000)">
                                    <path d="M1.00934423,21.9887369 L21.984899,21.9887369 L21.984899,1.01318205 L1.00934423,1.01318205 L1.00934423,21.9887369 Z M0,23 L23,23 L23,0 L0,0 L0,23 Z" id="Fill-27"></path>
                                    <path d="M16.731,8 L15.255,8 C15.185,8 15.157,8.03393214 15.157,8.13173653 L15.157,15.8522954 C15.157,15.9680639 15.199,16 15.281,16 L16.731,16 C16.815,16 16.843,15.9500998 16.843,15.8682635 L16.843,8.13173653 C16.843,8.01796407 16.815,8 16.731,8" id="Fill-28"></path>
                                    <path d="M16,7 C16.558,7 16.934,6.61252446 16.934,6 C16.934,5.40313112 16.586,5 16.014,5 C15.47,5 15.066,5.40313112 15.066,6 C15.066,6.61252446 15.442,7 16,7" id="Fill-29"></path>
                                    <path d="M8.89302068,7.53431281 L8.90614661,7.53431281 C9.17241539,8.6074019 9.82496141,10.6773294 10.0912302,11.7057839 L7.74919001,11.7057839 C8.14859318,10.2793379 8.69425666,8.54602938 8.89302068,7.53431281 L8.89302068,7.53431281 Z M6.45909901,16 C6.5397297,16 6.57910748,15.9683839 6.5922334,15.877255 L7.40416567,13.2084806 L10.4493805,13.2084806 L11.3006905,15.9070113 C11.3269423,15.9683839 11.3531942,16 11.420699,16 L12.909554,16 C12.9901847,16 13.0164365,15.9535057 12.9901847,15.8623768 C11.9794884,12.6877441 10.9012873,9.22112702 9.91684289,6.07811047 C9.89059104,6.01673796 9.87746512,6 9.81183549,6 L7.97608101,6 C7.93670323,6 7.89545032,6.03161614 7.89545032,6.09298866 C7.86919847,6.62860331 7.82982069,6.78296448 7.79044292,6.93546587 C6.93913287,9.5893621 5.72779743,13.5004649 5.00962178,15.8456388 C4.98336993,15.9535057 5.00962178,16 5.10337839,16 L6.45909901,16 Z" id="Fill-154"></path>
                                </g>
                            </g>
                        </g>
                    </g>
                </g>
            </g>
        </g>
    </g>
</svg>