<?xml version="1.0" encoding="UTF-8"?>
<svg width="25px" height="23px" viewBox="0 0 25 23" version="1.1" xmlns="http://www.w3.org/2000/svg" xmlns:xlink="http://www.w3.org/1999/xlink">
    <title>InDesign-Icon</title>
    <g id="Welcome" stroke="none" stroke-width="1" fill="none" fill-rule="evenodd">
        <g id="MADE_Website-Design_Concept_HOME-PAGE_v1" transform="translate(-497.000000, -7545.000000)" fill="#FFFFFF">
            <g id="Footer" transform="translate(0.000000, 6960.000000)">
                <g id="Content" transform="translate(298.000000, 233.000000)">
                    <g id="My-Qualifications" transform="translate(0.000000, 220.000000)">
                        <g id="Logos" transform="translate(32.555556, 132.000000)">
                            <g id="Group-25" transform="translate(113.444444, 0.000000)">
                                <g id="InDesign-Icon" transform="translate(54.000000, 0.000000)">
                                    <path d="M1.01326658,21.9887369 L21.9905715,21.9887369 L21.9905715,1.01318205 L1.01326658,1.01318205 L1.01326658,21.9887369 Z M0,23 L23,23 L23,0 L0,0 L0,23 Z" id="Fill-24"></path>
                                    <path d="M7.73,16 C7.83,16 7.858,15.953497 7.858,15.8623512 L7.858,6.10602679 C7.858,6.01488095 7.83,6 7.744,6 L6.256,6 C6.184,6 6.142,6.01488095 6.142,6.10602679 L6.142,15.8623512 C6.142,15.953497 6.17,16 6.256,16 L7.73,16 Z" id="Fill-25"></path>
                                    <path d="M13.6066569,9.76843255 C13.9097215,9.76843255 14.1845503,9.81212452 14.3822011,9.90132896 L14.3822011,14.434371 C14.1450201,14.521755 13.8174845,14.5818314 13.4899488,14.5818314 C12.4922828,14.5818314 11.6263839,13.9173494 11.6263839,12.2479519 C11.6263839,10.7423994 12.4263992,9.76843255 13.6066569,9.76843255 M13.3054747,16 C14.1713736,16 15.103156,15.7342072 15.9295247,15.2754415 C15.9954083,15.2317495 16.008585,15.2026215 15.9954083,15.1279811 C15.9822316,14.8913162 15.9558782,14.492627 15.9558782,14.1831422 L15.9558782,6.08738394 C15.9558782,6.02912798 15.9427014,6 15.8899945,6 L14.4593791,6 C14.4085546,6 14.3822011,6.02912798 14.3822011,6.10376843 L14.3822011,8.49772438 C14.1581969,8.42308392 13.936075,8.39395594 13.6330104,8.39395594 C11.404262,8.39395594 10,10.1962498 10,12.3371564 C10,14.8039323 11.3779086,16 13.3054747,16" id="Fill-26"></path>
                                </g>
                            </g>
                        </g>
                    </g>
                </g>
            </g>
        </g>
    </g>
</svg>