<?xml version="1.0" encoding="UTF-8"?>
<svg width="25px" height="23px" viewBox="0 0 25 23" version="1.1" xmlns="http://www.w3.org/2000/svg" xmlns:xlink="http://www.w3.org/1999/xlink">
    <title>Lightroom-Icon</title>
    <g id="Welcome" stroke="none" stroke-width="1" fill="none" fill-rule="evenodd">
        <g id="MADE_Website-Design_Concept_HOME-PAGE_v1" transform="translate(-551.000000, -7545.000000)" fill="#FFFFFF">
            <g id="Footer" transform="translate(0.000000, 6960.000000)">
                <g id="Content" transform="translate(298.000000, 233.000000)">
                    <g id="My-Qualifications" transform="translate(0.000000, 220.000000)">
                        <g id="Logos" transform="translate(32.555556, 132.000000)">
                            <g id="Group-25" transform="translate(113.444444, 0.000000)">
                                <g id="Lightroom-Icon" transform="translate(108.000000, 0.000000)">
                                    <path d="M1.01318205,21.9887369 L21.9887369,21.9887369 L21.9887369,1.01318205 L1.01318205,1.01318205 L1.01318205,21.9887369 Z M0,23 L23,23 L23,0 L0,0 L0,23 Z" id="Fill-21"></path>
                                    <path d="M8.72673166,14.5446607 L8.72673166,6.1055121 C8.72673166,6.02910679 8.69855655,6 8.62811878,6 L7.11471294,6 C7.02817511,6 7,6.04547935 7,6.12006549 L7,15.8508277 C7,15.9545206 7.02817511,16 7.14288805,16 L12.6390467,16 C12.7094845,16 12.7517472,15.9854466 12.7819348,15.8944879 L12.9952606,14.6647262 C13.0093482,14.5901401 12.9952606,14.5446607 12.9087228,14.5446607 L8.72673166,14.5446607 Z" id="Fill-22"></path>
                                    <path d="M17.9085082,8.0169071 C17.8461275,8.00139842 17.7691912,7.99752125 17.7068105,8.00139842 C15.5921032,8.10802059 14.0970446,8.62562278 14.0970446,8.62562278 C14.0201083,8.62562278 13.988918,8.65857872 14.0034735,8.72255203 C14.0512987,9.24984714 14.0804097,9.78101942 14.0804097,10.4847258 L14.0804097,15.8720534 C14.0804097,15.9670441 14.1116001,16 14.2051712,16 L15.8270706,16 C15.9206418,16 15.9497528,15.9670441 15.9497528,15.8720534 L15.9497528,9.7577564 C16.5797983,9.51737186 16.99567,9.54257347 17.8773179,9.57552941 C17.9688096,9.57552941 18,9.54257347 18,9.46309148 L18,8.17780965 C18,8.04986304 17.9854445,8.03241578 17.9085082,8.0169071" id="Fill-23"></path>
                                </g>
                            </g>
                        </g>
                    </g>
                </g>
            </g>
        </g>
    </g>
</svg>