<?xml version="1.0" encoding="UTF-8"?>
<svg width="23px" height="23px" viewBox="0 0 23 23" version="1.1" xmlns="http://www.w3.org/2000/svg" xmlns:xlink="http://www.w3.org/1999/xlink">
    <title>Mailchimp-Icon</title>
    <g id="Welcome" stroke="none" stroke-width="1" fill="none" fill-rule="evenodd">
        <g id="MADE_Website-Design_Concept_HOME-PAGE_v1" transform="translate(-444.000000, -7576.000000)" fill="#FFFFFF">
            <g id="Footer" transform="translate(0.000000, 6960.000000)">
                <g id="Content" transform="translate(298.000000, 233.000000)">
                    <g id="My-Qualifications" transform="translate(0.000000, 220.000000)">
                        <g id="Logos" transform="translate(32.555556, 132.000000)">
                            <g id="Group-9" transform="translate(0.444444, 31.000000)">
                                <g id="Mailchimp-Icon" transform="translate(114.000000, 0.000000)">
                                    <path d="M11.999,15.999 C12.001,15.999 12.001,15.999 12.001,16.001 L12.001,15.999 L11.999,15.999 Z" id="Fill-101"></path>
                                    <path d="M14.9072857,10.9037746 C15.0812857,10.8837746 15.2492857,10.8817746 15.4032857,10.9037746 C15.4932857,10.6997746 15.5092857,10.3477746 15.4272857,9.96377462 C15.3092857,9.39177462 15.1472857,9.04777462 14.8152857,9.10177462 C14.4812857,9.15577462 14.4692857,9.56777462 14.5872857,10.1377746 C14.6552857,10.4597746 14.7752857,10.7337746 14.9072857,10.9037746" id="Fill-102"></path>
                                    <path d="M12.6425442,11.2892203 C12.825894,11.3932203 12.9399098,11.4632203 12.9830509,11.4032203 C13.0123252,11.3652203 13.0030807,11.2932203 12.9599396,11.1992203 C12.8690351,11.0072203 12.6826038,10.8132203 12.4838466,10.7032203 C12.080169,10.4772203 11.5963721,10.5532203 11.2250504,10.8992203 C11.1017901,11.0172203 10.9846927,11.1792203 11.001641,11.2772203 C11.007804,11.3092203 11.0247523,11.3312203 11.0678935,11.3412203 C11.1695832,11.3552203 11.5239567,11.1232203 11.9322566,11.0912203 C12.2203776,11.0672203 12.4591945,11.1852203 12.6425442,11.2892203" id="Fill-103"></path>
                                    <path d="M11.9546206,11.7239677 C11.6446206,11.7739677 11.4726206,11.8759677 11.3626206,11.9699677 C11.2686206,12.0519677 11.2106206,12.1439677 11.2106206,12.2079677 C11.2106206,12.2379677 11.2246206,12.2559677 11.2346206,12.2639677 C11.2486206,12.2759677 11.2666206,12.2839677 11.2866206,12.2839677 C11.3566206,12.2839677 11.5126206,12.2199677 11.5126206,12.2199677 C11.9466206,12.0659677 12.2306206,12.0839677 12.5126206,12.1159677 C12.6706206,12.1339677 12.7426206,12.1439677 12.7786206,12.0899677 C12.7886206,12.0739677 12.8006206,12.0419677 12.7686206,11.9899677 C12.6966206,11.8719677 12.3826206,11.6739677 11.9546206,11.7239677" id="Fill-104"></path>
                                    <path d="M14.8634872,12.2785082 C15.0734872,12.3825082 15.3074872,12.3405082 15.3814872,12.1885082 C15.4574872,12.0345082 15.3474872,11.8245082 15.1374872,11.7205082 C14.9254872,11.6185082 14.6934872,11.6585082 14.6174872,11.8125082 C14.5434872,11.9665082 14.6534872,12.1745082 14.8634872,12.2785082" id="Fill-105"></path>
                                    <path d="M15.689,11.9949766 C15.685,12.2309766 15.821,12.4229766 15.993,12.4249766 C16.163,12.4289766 16.307,12.2409766 16.311,12.0049766 C16.315,11.7709766 16.179,11.5769766 16.007,11.5749766 C15.835,11.5729766 15.693,11.7609766 15.689,11.9949766" id="Fill-106"></path>
                                    <path d="M4.77758638,15.6100124 C4.72548081,15.6216347 4.66686203,15.633257 4.60390113,15.633257 C4.46712399,15.6293829 4.34988645,15.5770825 4.28475448,15.4879781 C4.20008291,15.3717549 4.20659611,15.1993571 4.29995194,15.0017777 C4.31297833,14.9746589 4.32600472,14.9456031 4.34337325,14.9126732 C4.49317678,14.614367 4.74284933,14.1146073 4.46278186,13.6380922 C4.25001743,13.2797373 3.90698905,13.0569762 3.49231551,13.0085498 C3.09501049,12.9639976 2.68685014,13.0957172 2.42632226,13.3533453 C2.01381978,13.7581895 1.95085888,14.3083126 2.02901724,14.503955 C2.05941216,14.575626 2.10500454,14.5949965 2.13757053,14.5988706 C2.20704463,14.6066188 2.31125578,14.5620666 2.37638775,14.4051653 C2.38072988,14.39548 2.38724308,14.3780465 2.39375628,14.3548019 C2.4241512,14.2734456 2.47625677,14.1204184 2.56527046,13.996447 C2.67165268,13.849231 2.83665367,13.7465671 3.03204958,13.7097631 C3.22961656,13.6710221 3.43152567,13.705889 3.60086879,13.8046787 C3.88962052,13.9732024 4.00034487,14.287005 3.87659413,14.5891853 C3.81363323,14.7441496 3.70942207,15.0405187 3.7333038,15.2865245 C3.77889617,15.7804731 4.11975348,15.9780525 4.42587374,15.9993601 C4.72330974,16.0109824 4.93173205,15.8618293 4.98600869,15.7514173 C5.01640361,15.6874945 4.99035082,15.6487535 4.97298229,15.63132 C4.92738991,15.5790196 4.85140262,15.594516 4.77758638,15.6100124" id="Fill-107"></path>
                                    <path d="M20.217162,16.1654733 C20.0535283,17.1844097 19.6332875,18.0114561 18.9285473,18.7713409 C18.4990091,19.2472283 17.9783567,19.6636299 17.3814659,19.9648973 C17.0653556,20.1356795 16.728791,20.2834349 16.3717722,20.4043257 C13.7127261,21.3004525 10.9923174,20.3160562 10.1146463,18.1995084 C10.0439863,18.0402396 9.98448318,17.8752141 9.93799636,17.7005941 C9.56424232,16.305553 9.88221217,14.6341902 10.8751706,13.5807135 L10.8733112,13.5807135 C10.9346738,13.513552 10.9978958,13.4348771 10.9978958,13.3350942 C10.9978958,13.2525815 10.9458306,13.164312 10.9030627,13.1029072 C10.5553413,12.582885 9.35226243,11.6963527 9.59399389,9.98469299 C9.76692486,8.75275851 10.8100891,7.88541524 11.7825934,7.93722557 C11.8644102,7.94298227 11.9480864,7.94682008 12.0299032,7.95257678 C12.4501441,7.97752249 12.8183197,8.03317062 13.1660411,8.04852183 C13.7461966,8.07538645 14.2687085,7.987117 14.8860535,7.45558141 C15.0961739,7.27712361 15.261667,7.12169263 15.5461663,7.0718012 C15.5759179,7.0660445 15.6484373,7.03917988 15.7971951,7.04685548 C15.9478124,7.05453109 16.0909918,7.09674691 16.2211549,7.18501636 C16.7176342,7.52658075 16.7864347,8.3517082 16.8124673,8.95424312 C16.8273431,9.29772641 16.8682515,10.1305295 16.8812678,10.3703921 C16.9128788,10.9172789 17.0523393,10.9940349 17.3349791,11.08998 C17.4930343,11.1437092 17.6399327,11.1840061 17.857491,11.2473299 C18.5138849,11.4373011 18.9025147,11.6291912 19.1479651,11.8786483 C19.293004,12.0321604 19.3618045,12.1971859 19.3822587,12.3545358 C19.4603565,12.9359628 18.9452826,13.6555507 17.5785701,14.3098959 C16.0872729,15.025646 14.2761464,15.2060227 13.0265807,15.0621052 C12.9298881,15.0505917 12.5896046,15.0122137 12.5877451,15.0102948 C11.5873487,14.8721339 11.0164906,16.2057702 11.6171003,17.121086 C12.0038706,17.7101886 13.0581917,18.0939688 14.1125128,18.0939688 C16.5298274,18.0939688 18.3893002,17.0289787 19.0810241,16.1079062 C19.1014783,16.0810416 19.1033378,16.0772038 19.1368083,16.0273124 C19.1702788,15.9735831 19.1423867,15.9447996 19.0996188,15.9735831 C18.5343391,16.3727146 16.0259103,17.9558079 13.342691,17.4799205 C13.342691,17.4799205 13.0154238,17.4242723 12.7179082,17.3053005 C12.4817551,17.2112743 11.9871354,16.9752495 11.9257728,16.4513895 C14.0920586,17.1421939 15.4569116,16.4897675 15.4569116,16.4897675 C15.4810848,16.4782541 15.49782,16.4494706 15.4941011,16.4206871 C15.4903821,16.384228 15.4606306,16.3592823 15.42716,16.3631201 C15.42716,16.3631201 13.6513635,16.6336851 11.9741191,16.0004478 C12.1563474,15.3883183 12.6416698,15.6089919 13.3761615,15.6703968 C14.7001062,15.7509906 15.8864498,15.5514249 16.7622615,15.2923733 C17.5227859,15.0678619 18.5194633,14.6245957 19.2948634,13.9932773 C19.5551896,14.5842988 19.6481633,15.2367251 19.6481633,15.2367251 C19.6481633,15.2367251 19.8508458,15.200266 20.0200578,15.3077245 C20.1799725,15.4094262 20.2971193,15.6205054 20.217162,16.1654733 M7.88141945,6.45967177 C8.71446326,5.46759992 9.73717329,4.60409445 10.6557529,4.12053139 C10.6873639,4.10326128 10.7208344,4.1397204 10.7040991,4.17234172 C10.6315797,4.30666479 10.4902598,4.59833775 10.4456324,4.82093027 C10.4381945,4.85547049 10.475384,4.8804162 10.5032761,4.86122719 C11.0741342,4.46017688 12.0670927,4.02842414 12.937326,3.97469491 C12.9763749,3.97085711 12.9931102,4.02074854 12.9633586,4.04377535 C12.831336,4.14931491 12.6862971,4.29515139 12.5803072,4.44098787 C12.5635719,4.46593358 12.5803072,4.5023927 12.6100588,4.5023927 C13.2218253,4.5062305 14.0827612,4.72690412 14.644322,5.0531173 C14.6833709,5.07422521 14.6554788,5.15098125 14.612711,5.14138675 C13.7629319,4.93990214 12.3720462,4.78639005 10.9272359,5.15098125 C9.63676176,5.47527553 8.65124118,5.9780276 7.93162521,6.5172388 C7.89629523,6.54410341 7.85166788,6.49421198 7.88141945,6.45967177 M3.56000468,11.1782494 C2.8069182,11.3279237 2.14308641,11.769271 1.73772134,12.3775626 C1.4941304,12.1684024 1.04227851,11.7654332 0.962321185,11.6061644 C0.31336518,10.3377708 1.66892085,7.86814513 2.61725197,6.47310407 C4.95646874,3.02675779 8.62148962,0.418971274 10.3191883,0.892939832 C10.5943903,0.973533676 11.5073914,2.06538837 11.5073914,2.06538837 C11.5073914,2.06538837 9.81155221,3.0363523 8.23843822,4.39109644 C6.12049871,6.07397265 4.51949264,8.52249039 3.56000468,11.1782494 M4.82630565,17.0059519 C4.71101834,17.0251409 4.59573102,17.0328165 4.47858424,17.0308976 C3.34430583,16.9982763 2.12077273,15.9467185 1.99804753,14.697514 C1.86416549,13.3178241 2.54845148,12.2547529 3.75710879,12.0033769 C3.90214767,11.9726745 4.07693811,11.9554044 4.26474486,11.9649989 C4.94345243,12.0033769 5.94198932,12.5406692 6.17070448,14.0661955 C6.37338701,15.4151829 6.05169822,16.7891161 4.82630565,17.0059519 M20.178113,14.561272 C20.1688157,14.5267318 20.1055936,14.2868691 20.0181984,13.999034 C19.9308031,13.7131177 19.8415485,13.5097142 19.8415485,13.5097142 C20.1892699,12.970503 20.1967078,12.4888588 20.1502209,12.2163749 C20.1000152,11.8786483 19.9642737,11.5908132 19.6890717,11.2933835 C19.4138697,10.9940349 18.8523089,10.6908486 18.062033,10.4605804 C17.9709188,10.4356347 17.6734032,10.3512031 17.6473706,10.3416086 C17.6455111,10.3243385 17.6250569,9.33418553 17.6064622,8.9081895 C17.5934458,8.60116533 17.5692727,8.11952117 17.4242338,7.64747151 C17.2513028,7.00655856 16.9519277,6.44623946 16.5781737,6.08932386 C17.6101811,4.98403686 18.2554182,3.7674536 18.2535587,2.72357143 C18.2516992,0.716400936 15.8622767,0.108109305 12.9168718,1.36690839 C12.9150123,1.36882729 12.2976673,1.63747344 12.2939484,1.63939234 C12.2902294,1.63747344 11.1671079,0.497646217 11.1485131,0.482295009 C7.79216475,-2.53805524 -2.70269969,9.49921102 0.653648701,12.4236162 L1.38628098,13.0645292 C1.19661476,13.5730379 1.12223584,14.1563839 1.18173897,14.7819456 C1.2616963,15.5859651 1.66334243,16.3573634 2.31415791,16.9541416 C2.93336235,17.5202174 3.74781143,17.877133 4.53622789,17.877133 C5.84343727,20.9819149 8.82603163,22.8873836 12.3236999,22.9948421 C16.076116,23.1099761 19.226063,21.2927768 20.5462886,18.0287262 C20.6336839,17.8003769 21,16.7680082 21,15.8565302 C21,14.9412144 20.4979423,14.561272 20.178113,14.561272" id="Fill-108"></path>
                                </g>
                            </g>
                        </g>
                    </g>
                </g>
            </g>
        </g>
    </g>
</svg>