<?xml version="1.0" encoding="UTF-8"?>
<svg width="23px" height="23px" viewBox="0 0 23 23" version="1.1" xmlns="http://www.w3.org/2000/svg" xmlns:xlink="http://www.w3.org/1999/xlink">
    <title> Outlook-Icon</title>
    <g id="Welcome" stroke="none" stroke-width="1" fill="none" fill-rule="evenodd">
        <g id="MADE_Website-Design_Concept_HOME-PAGE_v1" transform="translate(-330.000000, -7545.000000)" fill="#FFFFFF">
            <g id="Footer" transform="translate(0.000000, 6960.000000)">
                <g id="Content" transform="translate(298.000000, 233.000000)">
                    <g id="My-Qualifications" transform="translate(0.000000, 220.000000)">
                        <g id="-Outlook-Icon" transform="translate(32.555556, 132.000000)">
                            <path d="M15.6393147,9.9908385 L22,5.84285839 C22,5.35249978 21.5256988,5 21.2587917,5 L14,5 L14,9.09039351 L15.4770063,9.9908385 C15.5166817,10.0030538 15.6014427,10.0030538 15.6393147,9.9908385" id="Fill-158"></path>
                            <path d="M22,15.7951759 L22,8 C22,8 15.5401262,12.3055276 15.767358,12.1662312 C15.767358,12.1662312 15.5383228,12.3055276 15.348963,12.1662312 L14,11.2363819 L14,17 L20.8494139,17 C21.458972,17 22,16.6454271 22,15.7951759" id="Fill-159"></path>
                            <path d="M6.53125,9 C6.0625,9 5.68933824,9.2303263 5.41360294,9.6890595 C5.13786765,10.1477927 5,10.7543186 5,11.5105566 C5,12.2783109 5.13786765,12.8848369 5.41360294,13.3301344 C5.68933824,13.7773512 6.05147059,14 6.49816176,14 C6.95955882,14 7.32536765,13.7831094 7.59375,13.3493282 C7.86397059,12.915547 8,12.3128599 8,11.5431862 C8,10.7408829 7.86948529,10.1151631 7.60661765,9.66794626 C7.34558824,9.22264875 6.98713235,9 6.53125,9" id="Fill-160"></path>
                            <path d="M8.69833763,14.3687636 C8.14875322,15.1132988 7.43336199,15.4855665 6.54843795,15.4855665 C5.68773287,15.4855665 4.98724563,15.1248123 4.44325021,14.4033039 C3.9029808,13.6817954 3.63098309,12.7415318 3.63098309,11.5825129 C3.63098309,10.3582513 3.90484379,9.36809611 4.4562912,8.61204739 C5.00773861,7.85599867 5.73803382,7.4779743 6.64531384,7.4779743 C7.50415592,7.4779743 8.19719117,7.83872852 8.7262826,8.56407475 C9.25723703,9.28750209 9.52179212,10.2411981 9.52179212,11.4251627 C9.52364574,12.6417487 9.24792204,13.6242283 8.69833763,14.3687636 L8.69833763,14.3687636 Z M13,0 L0,2.59244118 L0,20.1926414 L13,23 L13,0 Z" id="Fill-161"></path>
                        </g>
                    </g>
                </g>
            </g>
        </g>
    </g>
</svg>