<?xml version="1.0" encoding="UTF-8"?>
<svg width="25px" height="23px" viewBox="0 0 25 23" version="1.1" xmlns="http://www.w3.org/2000/svg" xmlns:xlink="http://www.w3.org/1999/xlink">
    <title>Photoshop-Icon</title>
    <g id="Welcome" stroke="none" stroke-width="1" fill="none" fill-rule="evenodd">
        <g id="MADE_Website-Design_Concept_HOME-PAGE_v1" transform="translate(-524.000000, -7545.000000)" fill="#FFFFFF">
            <g id="Footer" transform="translate(0.000000, 6960.000000)">
                <g id="Content" transform="translate(298.000000, 233.000000)">
                    <g id="My-Qualifications" transform="translate(0.000000, 220.000000)">
                        <g id="Logos" transform="translate(32.555556, 132.000000)">
                            <g id="Group-25" transform="translate(113.444444, 0.000000)">
                                <g id="Photoshop-Icon" transform="translate(81.000000, 0.000000)">
                                    <path d="M1.01326658,21.9887369 L21.9886525,21.9887369 L21.9886525,1.01318205 L1.01326658,1.01318205 L1.01326658,21.9887369 Z M0,23 L23,23 L23,0 L0,0 L0,23 Z" id="Fill-30"></path>
                                    <path d="M7.54259819,7.49464901 C7.64592145,7.47832396 8.00483384,7.46381281 8.50694864,7.46381281 C9.71601208,7.46381281 10.3703927,8.07872302 10.3703927,9.27589334 C10.3703927,10.7705424 9.39335347,11.0607655 8.37824773,11.0607655 C7.83806647,11.0607655 7.64592145,11.0462543 7.54259819,11.0317432 L7.54259819,7.49464901 Z M7.45196375,16 C7.51722054,16 7.54259819,15.9691638 7.54259819,15.880283 L7.54259819,12.4810448 L8.34018127,12.4810448 C10.229003,12.4810448 12,11.5795393 12,9.20152367 C11.9873112,7.46744059 11.0265861,6 8.50694864,6 C7.52990937,6 6.56555891,6.01451116 6.07794562,6.02902231 C6.01268882,6.02902231 6,6.05985852 6,6.13422819 L6,15.8947941 C6,15.9691638 6.02537764,16 6.09063444,16 L7.45196375,16 Z" id="Fill-31"></path>
                                    <path d="M15.3645918,16 C16.914713,16 18,15.1111111 18,13.5475006 C18,12.421701 17.3795473,11.8436389 15.9284559,11.1878702 C14.8714632,10.7178394 14.6895715,10.5150438 14.6895715,10.1397773 C14.6895715,9.84411277 14.8714632,9.43852168 15.5626516,9.43852168 C16.2942603,9.43852168 17.0137429,9.53897181 17.5210186,9.84979863 C17.5897332,9.89718076 17.6463217,9.84979863 17.6463217,9.75692964 L17.6463217,8.47571665 C17.6463217,8.38095238 17.6321746,8.33546553 17.56346,8.27292111 C17.1673403,8.02274343 16.5630558,8 15.7041229,8 C14.0408246,8 13.0282943,9.04619758 13.0282943,10.3122483 C13.0282943,11.4532101 13.6325788,12.0180052 15.0836702,12.673774 C16.0982215,13.1267472 16.2538399,13.3617626 16.2538399,13.7673537 C16.2538399,14.1122957 16.0295069,14.5159915 15.3807599,14.5159915 C14.6491512,14.5159915 13.8326597,14.3700545 13.0990299,13.8545368 C13.0565885,13.822317 13,13.8545368 13,13.9322435 L13,15.3707652 C13,15.4484719 13.0282943,15.4958541 13.0848828,15.5261786 C13.6770412,15.933665 14.6188359,16 15.3645918,16" id="Fill-32"></path>
                                </g>
                            </g>
                        </g>
                    </g>
                </g>
            </g>
        </g>
    </g>
</svg>