<?xml version="1.0" encoding="UTF-8"?>
<svg width="24px" height="23px" viewBox="0 0 24 23" version="1.1" xmlns="http://www.w3.org/2000/svg" xmlns:xlink="http://www.w3.org/1999/xlink">
    <title>PowerPoint-Icon</title>
    <defs>
        <polygon id="path-1" points="1.96581197e-05 0.0247692308 21.7047462 0.0247692308 21.7047462 21.2307692 1.96581197e-05 21.2307692"></polygon>
    </defs>
    <g id="Welcome" stroke="none" stroke-width="1" fill="none" fill-rule="evenodd">
        <g id="MADE_Website-Design_Concept_HOME-PAGE_v1" transform="translate(-411.000000, -7545.000000)">
            <g id="Footer" transform="translate(0.000000, 6960.000000)">
                <g id="Content" transform="translate(298.000000, 233.000000)">
                    <g id="My-Qualifications" transform="translate(0.000000, 220.000000)">
                        <g id="Logos" transform="translate(32.555556, 132.000000)">
                            <g id="PowerPoint-Icon" transform="translate(81.444444, 0.000000)">
                                <g id="Group-3" transform="translate(0.000000, 0.744992)">
                                    <mask id="mask-2" fill="white">
                                        <use xlink:href="#path-1"></use>
                                    </mask>
                                    <g id="Clip-2"></g>
                                    <path d="M14.0510538,8.40809231 C14.0475154,7.33593846 14.0634385,6.26378462 14.0280538,5.1934 C13.6246692,5.27124615 13.2195154,5.35616923 12.8179,5.44286154 L12.8179,2.98363077 L20.9545923,2.98363077 L20.9545923,18.0256308 L12.8179,18.0256308 L12.8179,16.0529385 L18.7359769,16.0529385 L18.7359769,15.0657077 L12.8179,15.0657077 L12.8179,13.8325538 L18.7359769,13.8325538 L18.7359769,12.8470923 L12.8196692,12.8470923 C12.8179,12.3640923 12.8179,11.8793231 12.8161308,11.3963231 C13.7927462,11.7006308 14.9038231,11.6935538 15.7760538,11.1061692 C16.7208231,10.5453231 17.2144385,9.47847692 17.2958231,8.4134 C16.2130538,8.40632308 15.1302846,8.40809231 14.0510538,8.40809231 L14.0510538,8.40809231 Z M7.23243846,11.4440923 C6.67336154,11.7307077 6.03113077,11.6917846 5.42251538,11.6740923 C5.42074615,12.6383231 5.41720769,13.6025538 5.42074615,14.5632462 C4.93243846,14.5243231 4.44236154,14.4818615 3.95405385,14.4429385 C3.93105385,11.8067846 3.92574615,9.1724 3.95582308,6.53801538 C5.29513077,6.60170769 6.91751538,6.00901538 8.02682308,7.01216923 C9.09013077,8.30016923 8.80882308,10.6744769 7.23243846,11.4440923 L7.23243846,11.4440923 Z M12.8179,18.7651692 C15.2859769,18.7651692 17.7522846,18.7598615 20.2168231,18.7704769 C20.3176692,18.7669385 20.6166692,18.7651692 20.7192846,18.7634 C21.3579769,18.7421692 21.6782077,18.7156308 21.6941308,18.0751692 C21.6994385,17.8876308 21.6959,17.2153231 21.7047462,17.0330923 C21.6693615,12.4260154 21.7224385,7.68624615 21.6799769,3.08093846 C21.6729,2.69524615 21.6516692,2.25470769 21.1545154,2.25470769 C18.5201308,2.21578462 15.4540538,2.25824615 12.8179,2.24409231 L12.8179,0.0237076923 L0.00159230769,2.00170769 C0.00159230769,7.75170769 -0.00194615385,13.5034769 0.00159230769,19.2570154 L12.8179,21.2314769 L12.8179,18.7651692 Z" id="Fill-1" fill="#FFFFFF" mask="url(#mask-2)"></path>
                                </g>
                                <path d="M14.5460846,5.42195385 C14.5407769,6.49941538 14.5443154,7.57864615 14.5443154,8.65964615 C15.6253154,8.65964615 16.7080846,8.66495385 17.7908538,8.65256923 C17.7006231,6.94349231 16.2604692,5.50156923 14.5460846,5.42195385" id="Fill-4" fill="#FFFFFF"></path>
                                <path d="M5.42092308,8.61824615 C5.41384615,9.44624615 5.40853846,10.2724769 5.45984615,11.0987077 C5.95169231,11.0403231 6.58684615,11.0880923 6.86815385,10.5803231 C7.10346154,10.0831692 7.11761538,9.44624615 6.83630769,8.96324615 C6.509,8.50678462 5.90746154,8.59524615 5.42092308,8.61824615" id="Fill-6" fill="#FFFFFF"></path>
                            </g>
                        </g>
                    </g>
                </g>
            </g>
        </g>
    </g>
</svg>