<?xml version="1.0" encoding="UTF-8"?>
<svg width="22px" height="18px" viewBox="0 0 22 18" version="1.1" xmlns="http://www.w3.org/2000/svg" xmlns:xlink="http://www.w3.org/1999/xlink">
    <title>Sketch-Icon</title>
    <g id="Welcome" stroke="none" stroke-width="1" fill="none" fill-rule="evenodd">
        <g id="MADE_Website-Design_Concept_HOME-PAGE_v1" transform="translate(-330.000000, -7579.000000)" fill="#FFFFFF">
            <g id="Footer" transform="translate(0.000000, 6960.000000)">
                <g id="Content" transform="translate(298.000000, 233.000000)">
                    <g id="My-Qualifications" transform="translate(0.000000, 220.000000)">
                        <g id="Logos" transform="translate(32.555556, 132.000000)">
                            <g id="Group-9" transform="translate(0.444444, 31.000000)">
                                <g id="Sketch-Icon" transform="translate(0.000000, 3.000000)">
                                    <path d="M4.33112223,0.613127248 L9.90000021,0 L4.33112223,5.43287588 L4.33112223,0.613127248 Z M9.90000021,17.6000004 L9.87544969,17.551275 L16.0805955,6.34444586 L19.8000004,6.34444586 L9.90000021,17.6000004 Z M19.8000004,6.34444586 L16.156293,5.78816485 L15.4668323,0.613127248 L19.8000004,6.34444586 Z M15.4668323,0.613127248 L15.4668323,5.43287588 L9.90000021,0 L15.4668323,0.613127248 Z M9.90000021,0 L14.8919408,5.73131862 L4.90805962,5.73131862 L9.90000021,0 Z M4.33112223,0.613127248 L3.64166158,5.78816485 L0,6.34444586 L4.33112223,0.613127248 Z M15.3154374,6.34444586 L9.87340381,17.5472146 L4.48251715,6.34444586 L15.3154374,6.34444586 Z M0,6.34444586 L3.66621211,6.34444586 L9.87135793,17.551275 L9.86726618,17.5634564 L0,6.34444586 Z" id="Fill-162"></path>
                                </g>
                            </g>
                        </g>
                    </g>
                </g>
            </g>
        </g>
    </g>
</svg>