<?xml version="1.0" encoding="UTF-8"?>
<svg width="72px" height="15px" viewBox="0 0 72 15" version="1.1" xmlns="http://www.w3.org/2000/svg" xmlns:xlink="http://www.w3.org/1999/xlink">
    <title>Solidworks-Icon</title>
    <g id="Welcome" stroke="none" stroke-width="1" fill="none" fill-rule="evenodd">
        <g id="MADE_Website-Design_Concept_HOME-PAGE_v1" transform="translate(-558.000000, -7580.000000)" fill="#FFFFFF">
            <g id="Footer" transform="translate(0.000000, 6960.000000)">
                <g id="Content" transform="translate(298.000000, 233.000000)">
                    <g id="My-Qualifications" transform="translate(0.000000, 220.000000)">
                        <g id="Logos" transform="translate(32.555556, 132.000000)">
                            <g id="Group-9" transform="translate(0.444444, 31.000000)">
                                <g id="Group-7" transform="translate(166.000000, 4.000000)">
                                    <g id="Solidworks-Icon" transform="translate(62.000000, 0.000000)">
                                        <path d="M49.9998993,7.23795185 C50.0019119,7.17502243 49.9737352,7.09636066 49.9173818,7.05309669 C49.8610284,7.00786618 49.7986371,7 49.7382584,7 L49.4303273,7 L47.0453702,12.2782046 L46.42347,9.45031405 C46.3872428,9.20252948 46.183968,9.03340668 45.9424534,9.04717249 L45.5419416,9.04717249 L43.66014,12.2487064 L43.6782536,7.2536842 C43.6802662,7.1868217 43.6520895,7.10422684 43.5937235,7.05899633 C43.5353575,7.01179927 43.4689409,7 43.4025244,7 L43,7 L43,12.9999263 L43.5132186,12.9999263 L43.5232817,12.9999263 C43.6742284,13.0018928 43.8110867,12.9645285 43.9217809,12.8858667 C44.022412,12.8150711 44.1109673,12.7167439 44.187447,12.5987513 L45.8357844,9.72563023 L46.5220885,12.9999263 L46.9487644,12.9999263 L46.9608401,12.9999263 C47.2426072,12.9999263 47.4760713,12.8406362 47.5988413,12.5692531 L49.9676973,7.36381067 C49.9858109,7.3205467 49.9998993,7.29301508 49.9998993,7.23795185" id="Fill-67"></path>
                                        <path d="M39.6927283,7 L36.5540048,7 L36.5387219,7.0982962 C36.4661281,7.50524246 36.4986043,7.97706422 37.1252028,7.97706422 L39.4501124,7.97706422 C40.3689961,7.97706422 40.722413,8.66120577 40.4931696,9.94692005 C40.2849402,11.1264744 39.6678936,12.0249017 38.7299062,12.0249017 L37.4709782,12.0249017 L38.0689212,8.65137615 L36.9972086,8.65137615 C36.8520211,8.65137615 36.7526823,8.75950197 36.7354891,8.85583224 L36,13 L38.4586349,13 C40.2734781,13 41.5381372,12.121232 41.9316716,9.90366972 C42.2335087,8.20117955 41.5438683,7 39.6927283,7" id="Fill-68"></path>
                                        <path d="M54.2212903,10.1698332 C53.7889994,11.8394842 52.5614562,12.4592647 51.4052818,12.402921 L51.2890526,12.3991647 C50.1716212,12.265818 49.3457824,11.469494 49.7882689,9.83177109 C50.2368727,8.16212007 51.5398629,7.54233959 52.6817636,7.60056139 C53.8155078,7.70761439 54.6433857,8.5302321 54.2212903,10.1698332 M52.8387749,7.01270901 L52.8387749,7.01083088 C50.8343314,6.86809356 49.563967,8.15460757 49.1235196,9.78106178 C48.7238544,11.2516318 49.2662572,12.786058 51.1585497,12.9870171 L51.1585497,12.9888953 C53.1935797,13.1335107 54.4680224,11.8469967 54.8880787,10.2186644 C55.2673529,8.74997245 54.7065981,7.21366813 52.8387749,7.01270901" id="Fill-69"></path>
                                        <path d="M5.44604928,4.98267579 C4.96644632,5.31981044 4.60484091,5.62960986 4.52681027,5.78268722 C4.48303698,5.86287059 4.50397203,5.97950096 4.63529189,5.99772446 C4.77422449,6.0141256 5.10537892,5.94487632 5.6515934,5.69156974 C7.88212781,4.65465288 10.4400103,2.54437216 9.93566589,1.09924901 C9.6273497,0.215409505 7.97348076,-0.0506535219 6.57654197,0.00766166199 C5.18911912,0.0677991954 3.92540338,0.384888008 4.00343402,0.62908284 C4.10049652,0.926125808 5.04257377,0.851409479 5.4003728,0.851409479 C6.72308732,0.851409479 7.99441581,1.08284786 8.29892562,1.41816017 C8.77281903,1.93935213 7.95635208,3.22775322 5.44604928,4.98267579" id="Fill-70"></path>
                                        <path d="M17.398624,8.30733945 C17.3217321,8.78899083 17.4734925,9.35714286 18.0279239,9.73263434 L20.0028329,11.0714286 C20.209227,11.2110092 20.3124241,11.3053735 20.286119,11.4685452 C20.2496965,11.6926606 20.1282881,11.7830931 19.7195467,11.7830931 L17.4229057,11.7830931 C17.1780656,11.7830931 17.0445164,11.8990826 17,12.1684142 L17,13 L19.6891947,13 C20.868879,13 21.451639,12.3256881 21.5690004,11.6061599 C21.6782679,10.931848 21.4455686,10.4501966 20.9963577,10.1395806 L18.9000405,8.69266055 C18.7300688,8.57470511 18.6875759,8.51376147 18.6997167,8.42529489 C18.7199514,8.27785059 18.8575476,8.21690695 19.0963173,8.21690695 L21.4941319,8.21690695 C21.7855119,8.21690695 21.9534601,7.9259502 22,7.63892529 L22,7 L18.8312424,7 C18.1270741,7 17.5119385,7.61140236 17.398624,8.30733945" id="Fill-71"></path>
                                        <path d="M65.7533093,7.00982962 L65.4564781,7.00982962 L62.3056558,9.65203145 L62.7248295,7.31847969 C62.7509025,7.1887287 62.6867228,7.10026212 62.6325712,7.06290957 C62.5784196,7.02162516 62.508223,7 62.4400321,7 L62.1371841,7 L61,12.9980341 L61.6738869,12.9980341 L62.1712796,10.3440367 L64.6662655,13 L64.9651023,13 C65.0232651,12.9980341 65.081428,12.9901704 65.1315684,12.9528178 C65.1837144,12.9174312 65.211793,12.8466579 65.2097874,12.7896461 C65.2097874,12.6815203 65.1195347,12.5733945 65.1195347,12.5733945 L62.758925,10.0589777 L65.9097473,7.43643512 C65.9097473,7.43643512 66,7.36173001 66,7.22018349 C66,7.16317169 65.973927,7.09436435 65.921781,7.0570118 C65.8716406,7.01769332 65.8134777,7.01179554 65.7533093,7.00982962" id="Fill-72"></path>
                                        <path d="M31.738348,12.0265487 L29.3914761,12.0265487 L30.202115,7.20452311 C30.2184001,7.10619469 30.15145,7 30.0410729,7 L29.0096797,7 L28,13 L31.8867239,13 L31.9880537,12.4021632 C32.0332903,12.1327434 31.950055,12.0265487 31.738348,12.0265487" id="Fill-73"></path>
                                        <path d="M67.7233123,7 C66.6582221,7.00196592 66.5461073,7.95150721 66.5406824,8.39973788 C66.5406824,8.87155963 66.8571354,9.24508519 67.0126494,9.39842726 L68.5641729,11.0498034 C68.7486198,11.2463958 68.8372266,11.4783748 68.8372266,11.6946265 C68.8372266,12.0583224 68.5804476,12.3571429 68.1645381,12.3571429 L66.1392393,12.3650066 C66.0741404,12.378768 66.0054249,12.4731324 66.0054249,12.5478375 L66,12.5478375 L66.0054249,12.5498034 L66.0054249,13 L68.2603781,13 C69.3254682,12.9960682 69.4357747,12.0484928 69.4430079,11.6002621 L69.4411996,11.5963303 C69.4430079,10.9770642 68.9167919,10.4973788 68.9131753,10.4954128 L67.4430254,8.92267366 C67.2603868,8.72608126 67.1464638,8.52359109 67.1464638,8.30537353 C67.1464638,7.93971166 67.4032427,7.64285714 67.817344,7.64285714 L69.8661507,7.63302752 C69.9330579,7.62123198 70.0017734,7.52686763 70,7.45216252 L70,7.45019659 L70,7 L67.7233123,7 Z" id="Fill-74"></path>
                                        <path d="M26.6698805,9.99905749 C26.4507555,11.3355325 25.838717,12.0122526 24.669421,12.0122526 C23.5001251,12.0122526 23.1109894,11.3355325 23.3301144,9.99905749 C23.5492393,8.66446748 24.1612779,7.98586239 25.3305738,7.98586239 C26.5017588,7.98586239 26.8908944,8.66446748 26.6698805,9.99905749 M25.4949175,7 C23.4340098,7 22.3251621,8.36475024 22.056923,9.99905749 C21.7886839,11.6314797 22.4460586,13 24.5069663,13 C26.565985,13 27.6729437,11.6314797 27.9430718,9.99905749 C28.211311,8.36663525 27.5539362,7 25.4949175,7" id="Fill-75"></path>
                                        <path d="M8.24888454,5.98290583 C7.65291111,6.86662175 8.77863871,8.07562033 9.8050374,9.24701399 C10.6269354,10.1833768 11.5228432,11.0802545 11.1566896,11.602963 C10.8587028,12.0316593 8.94613451,12.0316593 8.28783706,12.0655037 C7.48736294,12.1049889 6.33436858,12.1087494 6.13376315,12.2140432 C5.95263396,12.3080555 5.85330506,12.5994937 6.52913114,12.716069 C7.07251868,12.8100814 8.36963733,13.0018665 9.73492288,13 C11.1625324,13 12.6602565,12.7743567 12.98551,11.7082568 C13.2464918,10.8527446 12.3408459,9.93330401 11.5442671,9.00258193 C10.6736784,7.98348825 9.78945639,7.25771305 9.86541379,6.53569834 C9.92189493,5.9735046 11.0632035,5.9415404 12.954348,5.90957621 C13.3477684,5.90393547 14.1326615,5.885133 13.9807467,5.58429354 C13.8463605,5.31917877 13.2601252,5.23268742 12.5414514,5.11799238 C11.27939,4.91868623 9.02014428,4.84159612 8.24888454,5.98290583" id="Fill-76"></path>
                                        <path d="M34.8516968,7 L33.9143574,7 L33,13 L34.1146295,13 L34.997797,7.20445609 C35.0125712,7.10812582 34.9518329,7 34.8516968,7" id="Fill-77"></path>
                                        <path d="M58.2866962,9.72477064 C57.927093,9.82503277 57.4186217,9.84076016 56.8946837,9.84076016 C56.7071487,9.84076016 56.4422796,9.83682831 56.2122109,9.83289646 L56.6008144,7.65072084 C56.9082172,7.64875491 57.9116262,7.63302752 58.2499626,7.65268676 C58.3852971,7.65858453 58.5051648,7.67038008 58.5786322,7.68414155 C58.858968,7.73722149 59.040703,7.79423329 59.1586374,7.9102228 C59.669042,8.40366972 59.2108379,9.46920052 58.2866962,9.72477064 M57.6138902,7 L56.0981432,7 L55,13 L55.6496058,13 L56.10781,10.4207077 L57.2910206,10.4266055 L58.7603671,13 L59.0909701,13 C59.1470373,13 59.2011711,12.9901704 59.2514382,12.9528178 C59.3017053,12.9174312 59.3268389,12.8466579 59.3268389,12.7896461 C59.3268389,12.7031455 59.2398381,12.5733945 59.2398381,12.5733945 L57.9889602,10.3912189 C59.4757069,10.257536 59.8720438,9.18610747 59.9629113,8.76146789 C60.0363786,8.41546527 60.0170451,7.85124509 59.7541094,7.54849279 C59.2959053,7.01376147 58.5090315,7 57.6138902,7" id="Fill-78"></path>
                                        <path d="M7.47023079,7.70509999 C6.71616057,7.13840542 5.37297299,6.94950722 4.26543236,7.01114769 C3.28115321,7.06881135 1.58812055,7.4128049 1.65156396,7.75481005 C1.71138203,8.12465282 2.78266929,8.0093255 3.27390253,8.0093255 C4.35425313,8.0093255 6.06903781,8.08090798 6.33912546,8.84445436 C6.92099215,10.4908512 2.97299951,13.4456166 2.13010852,13.1612752 C1.74944807,13.0340174 2.9041181,10.8845548 3.32284459,10.1130549 C3.57118021,9.65174558 3.95184066,8.92796724 3.62737295,8.87825719 C3.26665186,8.82457034 2.86786472,9.50659223 2.60865308,9.89830743 C1.90533759,10.9660793 1.18570808,12.1332713 0.609279403,13.3302893 C0.429825192,13.7021205 -0.161104835,14.8156256 0.04191407,14.9587906 C0.230431625,15.0920135 1.13495335,14.9011269 2.28418537,14.402038 C5.89502161,12.8351772 7.52098552,10.7910999 7.95602603,9.10095822 C8.10829021,8.50642601 7.84545323,7.98745308 7.47023079,7.70509999" id="Fill-79"></path>
                                    </g>
                                </g>
                            </g>
                        </g>
                    </g>
                </g>
            </g>
        </g>
    </g>
</svg>