<?xml version="1.0" encoding="UTF-8"?>
<svg width="23px" height="23px" viewBox="0 0 23 23" version="1.1" xmlns="http://www.w3.org/2000/svg" xmlns:xlink="http://www.w3.org/1999/xlink">
    <title>WordPress-Icon</title>
    <g id="Welcome" stroke="none" stroke-width="1" fill="none" fill-rule="evenodd">
        <g id="MADE_Website-Design_Concept_HOME-PAGE_v1" transform="translate(-418.000000, -7576.000000)" fill="#FFFFFF">
            <g id="Footer" transform="translate(0.000000, 6960.000000)">
                <g id="Content" transform="translate(298.000000, 233.000000)">
                    <g id="My-Qualifications" transform="translate(0.000000, 220.000000)">
                        <g id="Logos" transform="translate(32.555556, 132.000000)">
                            <g id="Group-9" transform="translate(0.444444, 31.000000)">
                                <path d="M107.651456,6.24847726 C108.591641,7.81635378 109.132727,9.64714226 109.132727,11.60267 C109.132727,15.8725907 106.557771,19.5456821 102.864186,21.1903212 C103.848503,18.9181477 106.39084,12.9536921 107.417369,9.63754693 C107.81263,8.36328744 107.852924,7.20417188 107.651456,6.24847726 L107.651456,6.24847726 Z M100.122299,8.9831456 C100.122299,8.9831456 100.037874,8.39015436 100.037874,8.21743846 C100.037874,8.00250313 100.108868,7.73767209 100.24318,7.58606592 C100.33528,7.48627451 100.475348,7.2751773 100.642279,7.2751773 L101.814633,7.2751773 L101.814633,6.33291615 L95.4405606,6.33291615 L95.4405606,7.2751773 L95.6381914,7.2751773 C95.8473346,7.2751773 96.0507216,7.55536087 96.2483524,7.75494368 C96.4805206,7.99482687 96.7740886,8.89678765 97.1271377,9.83137255 L98.0558105,12.8769295 L96.0564779,17.4788486 L93.8652707,8.28076763 C93.8652707,8.28076763 93.9305081,7.64939508 94.0629015,7.54384647 C94.149245,7.46900292 94.2816384,7.2751773 94.4351381,7.2751773 L94.4965379,7.2751773 L94.4965379,6.33291615 L89.0856761,6.33291615 C90.8585968,3.03788068 94.4121131,0.882770129 98.5086344,0.882770129 C101.162259,0.882770129 103.585634,2.00926158 105.446817,3.60016688 C104.915325,3.4984564 104.333945,3.61360033 103.750647,3.94751773 C102.380662,4.73049645 101.933595,6.94509804 103.708434,8.05815603 C104.817469,8.74901961 105.210812,10.4800167 105.174356,11.5355027 C105.137899,12.5929078 102.597481,17.4539007 102.597481,17.4539007 L100.122299,8.9831456 Z M98.5086344,22.1153108 C97.6471177,22.1153108 96.8105448,22.0097622 96.0085092,21.8178557 L98.7235338,15.2028369 L101.095103,21.798665 C100.268124,22.004005 99.4008509,22.1153108 98.5086344,22.1153108 L98.5086344,22.1153108 Z M87.8845416,11.4817689 C87.8845416,10.0328744 88.1819471,8.45156446 88.7172771,7.2751773 L89.2717944,7.2751773 C89.8205556,7.2751773 90.3347793,7.93149771 90.3347793,7.93149771 L94.3852507,21.1692115 C90.5650288,19.5763872 87.8845416,15.8399666 87.8845416,11.4817689 L87.8845416,11.4817689 Z M98.4990406,0 C92.1479937,0 87,5.14885273 87,11.4990405 C87,17.8511473 92.1479937,23 98.4990406,23 C104.852006,23 110,17.8511473 110,11.4990405 C110,5.14885273 104.852006,0 98.4990406,0 L98.4990406,0 Z" id="WordPress-Icon"></path>
                            </g>
                        </g>
                    </g>
                </g>
            </g>
        </g>
    </g>
</svg>