<?xml version="1.0" encoding="UTF-8"?>
<svg width="24px" height="23px" viewBox="0 0 24 23" version="1.1" xmlns="http://www.w3.org/2000/svg" xmlns:xlink="http://www.w3.org/1999/xlink">
    <title>Word-Icon</title>
    <defs>
        <polygon id="path-1" points="1.96581197e-05 0.000530769231 21.7047462 0.000530769231 21.7047462 21.2065308 1.96581197e-05 21.2065308"></polygon>
    </defs>
    <g id="Welcome" stroke="none" stroke-width="1" fill="none" fill-rule="evenodd">
        <g id="MADE_Website-Design_Concept_HOME-PAGE_v1" transform="translate(-357.000000, -7545.000000)">
            <g id="Footer" transform="translate(0.000000, 6960.000000)">
                <g id="Content" transform="translate(298.000000, 233.000000)">
                    <g id="My-Qualifications" transform="translate(0.000000, 220.000000)">
                        <g id="Logos" transform="translate(32.555556, 132.000000)">
                            <g id="Word-Icon" transform="translate(27.444444, 0.769231)">
                                <mask id="mask-2" fill="white">
                                    <use xlink:href="#path-1"></use>
                                </mask>
                                <g id="Clip-2"></g>
                                <path d="M8.22674615,13.9532154 C7.81451538,14.1672923 7.19882308,13.9443692 6.71051538,13.9779846 C6.38320769,12.3467538 5.99928462,10.7226 5.70736154,9.08429231 C5.41897692,10.6766 5.0439,12.2547538 4.71305385,13.8382154 C4.2389,13.8134462 3.76297692,13.7833692 3.28705385,13.7515231 C2.87836154,11.5806769 2.39713077,9.42575385 2.01497692,7.25136923 C2.43782308,7.23190769 2.86066923,7.21421538 3.28351538,7.20006154 C3.53651538,8.77113846 3.8249,10.3333692 4.04782308,11.9062154 C4.39459231,10.2944462 4.75020769,8.68090769 5.09520769,7.06913846 C5.56405385,7.0426 6.0329,7.02313846 6.49997692,6.99836923 C6.82905385,8.66144615 7.16343846,10.3245231 7.51905385,11.9805231 C7.79682308,10.2696769 8.10643846,8.56413846 8.40366923,6.85506154 C8.89728462,6.83736923 9.3909,6.81083077 9.88097692,6.78075385 C9.32366923,9.16921538 8.83536154,11.5789077 8.22674615,13.9532154 L8.22674615,13.9532154 Z M12.8179,16.5221385 L19.2295923,16.5221385 L19.2295923,15.5349077 L12.8179,15.5349077 L12.8179,14.3017538 L19.2295923,14.3017538 L19.2295923,13.3162923 L12.8179,13.3162923 L12.8179,12.0813692 L19.2295923,12.0813692 L19.2295923,11.0976769 L12.8179,11.0976769 L12.8179,9.86275385 L19.2295923,9.86275385 L19.2295923,8.87729231 L12.8179,8.87729231 L12.8179,7.64413846 L19.2295923,7.64413846 L19.2295923,6.65690769 L12.8179,6.65690769 L12.8179,5.42552308 L19.2295923,5.42552308 L19.2295923,4.44006154 L12.8179,4.44006154 L12.8179,2.71152308 L20.9545923,2.71152308 L20.9545923,18.4930615 L12.8179,18.4930615 L12.8179,16.5221385 Z M12.8179,20.1455231 L12.8179,19.2290615 L13.7290538,19.2326 C15.8928231,19.2308308 18.0548231,19.2290615 20.2203615,19.2396769 C20.4379769,19.2290615 20.8095154,19.2326 21.0306692,19.2042923 C21.4269769,19.1512154 21.6021308,19.0751385 21.6640538,18.6788308 C21.7118231,18.3709846 21.6888231,17.8119077 21.7047462,17.5040615 C21.6693615,12.6475231 21.7224385,7.51144615 21.6799769,2.65313846 C21.6711308,2.17721538 21.4145923,1.9826 20.9740538,1.98613846 C18.3379,1.94544615 15.4558231,1.98613846 12.8179,1.97375385 L12.8179,-0.000707692308 L0.00159230769,1.97729231 C0.00159230769,7.72729231 -0.00194615385,13.4790615 0.00159230769,19.2326 L12.8179,21.2070615 L12.8179,20.1455231 Z" id="Fill-1" fill="#FFFFFF" mask="url(#mask-2)"></path>
                            </g>
                        </g>
                    </g>
                </g>
            </g>
        </g>
    </g>
</svg>