<?xml version="1.0" encoding="UTF-8"?>
<svg width="25px" height="19px" viewBox="0 0 25 19" version="1.1" xmlns="http://www.w3.org/2000/svg" xmlns:xlink="http://www.w3.org/1999/xlink">
    <title>Zeplin-Icon</title>
    <defs>
        <polygon id="path-1" points="0.370620008 0.677140015 8.72820019 0.677140015 8.72820019 7.88434017 0.370620008 7.88434017"></polygon>
        <polygon id="path-3" points="0.427264543 0.93600002 10.7570736 0.93600002 10.7570736 18.0000004 0.427264543 18.0000004"></polygon>
    </defs>
    <g id="Welcome" stroke="none" stroke-width="1" fill="none" fill-rule="evenodd">
        <g id="MADE_Website-Design_Concept_HOME-PAGE_v1" transform="translate(-352.000000, -7578.000000)">
            <g id="Footer" transform="translate(0.000000, 6960.000000)">
                <g id="Content" transform="translate(298.000000, 233.000000)">
                    <g id="My-Qualifications" transform="translate(0.000000, 220.000000)">
                        <g id="Logos" transform="translate(32.555556, 132.000000)">
                            <g id="Group-9" transform="translate(0.444444, 31.000000)">
                                <g id="Zeplin-Icon" transform="translate(22.500000, 2.000000)">
                                    <path d="M11.1808802,14.4850863 C11.2978802,15.0520863 11.4184802,15.5452863 11.5426803,15.9844863 C12.2392803,15.8458863 12.8926803,15.6766863 13.5316803,15.4642863 C13.1050803,15.0214863 12.7144803,14.5894863 12.3436803,14.1466863 C11.9170803,14.2798863 11.5354803,14.3914863 11.1808802,14.4850863" id="Fill-1" fill="#FFFFFF"></path>
                                    <path d="M10.7836202,12.1341063 C10.8808202,12.8739063 11.0032202,13.6011063 11.1454202,14.3049063 C11.4730202,14.2185063 11.8276203,14.1159063 12.2164203,13.9935063 C11.7592203,13.4427063 11.2786202,12.8181063 10.7836202,12.1341063" id="Fill-3" fill="#FFFFFF"></path>
                                    <path d="M5.50746012,15.8737863 C5.20506011,15.7513863 4.94586011,15.6235863 4.7136601,15.4849863 C4.6074601,15.4201863 4.5120601,15.3517863 4.4166601,15.2833863 C4.20246009,15.1303863 4.00806009,14.9593863 3.82986008,14.7703863 L3.77226008,14.7109863 C3.71466008,14.6515863 3.65706008,14.5939863 3.60666008,14.5291863 C3.39066007,14.2537863 3.23046007,13.9855863 3.12246007,13.7137863 L2.13246005,14.0737863 L2.07666005,17.2381864 L5.64426012,15.9349863 C5.63526012,15.9295863 5.62446012,15.9259863 5.61726012,15.9205863 C5.58126012,15.9061863 5.54526012,15.8881863 5.50746012,15.8737863" id="Fill-5" fill="#FFFFFF"></path>
                                    <path d="M3.05100007,13.5103863 C2.96640006,13.2385863 2.92140006,12.9433863 2.91060006,12.6103863 C2.90700006,12.5293863 2.91420006,12.4465863 2.92140006,12.3655863 L2.92860006,12.2701863 C2.94480006,12.0109863 2.98260006,11.7679863 3.04380007,11.5285862 C3.07260007,11.4115862 3.10680007,11.2855862 3.15180007,11.1559862 C3.23820007,10.9057862 3.35160007,10.6465862 3.50280008,10.3603862 C3.52440008,10.3225862 3.54240008,10.2847862 3.56040008,10.2451862 L3.57660008,10.2109862 L-7.46602796e-13,11.5177862 L2.07000004,13.9045863 L3.06180007,13.5427863 C3.05820007,13.5319863 3.05460007,13.5211863 3.05100007,13.5103863" id="Fill-7" fill="#FFFFFF"></path>
                                    <path d="M3.44646007,11.7543063 C3.35106007,11.9091063 3.27186007,12.0603063 3.20886007,12.2115063" id="Stroke-9" stroke-linecap="round" stroke-linejoin="round"></path>
                                    <path d="M3.21786007,11.5734063 C3.16026007,11.8020063 3.12426007,12.0324063 3.10806007,12.2808063 L3.10086007,12.3798063 C3.09726007,12.4140063 3.09546007,12.4464063 3.09366007,12.4788063 C3.09366007,12.4770063 3.09546007,12.4734063 3.09726007,12.4716063 C3.10446007,12.4464063 3.12066007,12.4212063 3.12786007,12.3978063 C3.14946007,12.3366063 3.18006007,12.2736063 3.20886007,12.2106063 C3.27186007,12.0612063 3.35106007,11.9100063 3.44646007,11.7552063 C3.48966008,11.6850063 3.53286008,11.6130063 3.58326008,11.5428063 C3.70206008,11.3736062 3.83886008,11.2008062 3.99186009,11.0280062 C4.03506009,10.9794062 4.06926009,10.9308062 4.11606009,10.8804062 C4.32126009,10.6608062 4.5552601,10.4376062 4.8144601,10.2144062 C4.87926011,10.1586062 4.95306011,10.1028062 5.01966011,10.0470062 C5.22846011,9.87600621 5.44806012,9.70500621 5.68566012,9.53580621 C5.78646013,9.46380621 5.88906013,9.3918062 5.99346013,9.3198062 C6.23826014,9.1524062 6.49566014,8.98860619 6.76386015,8.82480619 C6.86106015,8.76540619 6.95466015,8.70600619 7.05546015,8.64660619 C7.41546016,8.43600618 7.79166017,8.22900618 8.19306018,8.02380617 C7.93026017,7.53060616 7.71066017,7.08960615 7.52706016,6.67920614 C5.83866013,7.70520617 4.5534601,8.90940619 3.80466008,10.1640062 C3.77406008,10.2180062 3.74706008,10.2702062 3.72366008,10.3224062 C3.70386008,10.3638062 3.68406008,10.4052062 3.66246008,10.4466062 C3.51666008,10.7220062 3.40506007,10.9740062 3.32226007,11.2152062 C3.27906007,11.3376062 3.24666007,11.4600062 3.21786007,11.5734063" id="Fill-11" fill="#FFFFFF"></path>
                                    <path d="M4.11624009,10.8807662 C4.32144009,10.6593662 4.5554401,10.4379662 4.8146401,10.2147662" id="Stroke-13" stroke-linecap="round" stroke-linejoin="round"></path>
                                    <path d="M3.58272008,11.5435263 C3.70152008,11.3725262 3.83832008,11.2015262 3.99132009,11.0287262" id="Stroke-15" stroke-linecap="round" stroke-linejoin="round"></path>
                                    <path d="M5.02056011,10.0475462 C5.22936011,9.87654621 5.44896012,9.70554621 5.68656012,9.53454621" id="Stroke-17" stroke-linecap="round" stroke-linejoin="round"></path>
                                    <path d="M6.76422015,8.82498619 C6.49602014,8.98878619 6.23862014,9.1525862 5.99382013,9.3199862" id="Stroke-19" stroke-linecap="round" stroke-linejoin="round"></path>
                                    <path d="M8.82882019,14.9615463 C8.70462019,14.9795463 8.57682019,15.0011463 8.45622018,15.0173463 C7.93422017,15.0839463 7.45002016,15.1145463 6.99282015,15.1253463 C6.86682015,15.1289463 6.73902015,15.1325463 6.61662014,15.1325463 C6.21342013,15.1271463 5.83902013,15.1001463 5.49522012,15.0515463 C5.41782012,15.0389463 5.34582012,15.0245463 5.27022011,15.0119463 C4.91742011,14.9489463 4.5898201,14.8679463 4.31262009,14.7545463 C4.30002009,14.7491463 4.29102009,14.7419463 4.28022009,14.7365463 C4.06602009,14.6483463 3.90582008,14.5277463 3.74382008,14.4089463 C3.74742008,14.4125463 3.74742008,14.4161463 3.74922008,14.4197463 C3.77442008,14.4503463 3.80322008,14.4773463 3.83022008,14.5079463 C3.82842008,14.5061463 3.82482008,14.5061463 3.82302008,14.5043463 C3.84642008,14.5313463 3.87342008,14.5565463 3.90042008,14.5835463 L3.96162009,14.6465463 C4.13262009,14.8283463 4.31622009,14.9903463 4.5124201,15.1307463 C4.6132201,15.2027463 4.7050201,15.2693463 4.8076201,15.3305463 C5.03082011,15.4655463 5.28102011,15.5879463 5.57442012,15.7067463 C5.61582012,15.7229463 5.65362012,15.7409463 5.69142012,15.7571463 C5.74542012,15.7823463 5.79582013,15.8057463 5.85522013,15.8255463 C7.23042016,16.3079464 8.98722019,16.3979464 10.9438202,16.0901463 C10.8214202,15.6599463 10.7026202,15.1685463 10.5910202,14.6285463 C9.97002022,14.7743463 9.3886202,14.8787463 8.82882019,14.9615463" id="Fill-21" fill="#FFFFFF"></path>
                                    <path d="M6.61752014,15.1320063 C6.21252013,15.1284063 5.83992013,15.0996063 5.49612012,15.0510063" id="Stroke-23" stroke-linecap="round" stroke-linejoin="round"></path>
                                    <path d="M8.45712018,15.0177063 C7.93332017,15.0843063 7.45092016,15.1149063 6.99372015,15.1257063" id="Stroke-25" stroke-linecap="round" stroke-linejoin="round"></path>
                                    <path d="M5.27112011,15.0115863 C4.91652011,14.9485863 4.5889201,14.8675863 4.31352009,14.7541863" id="Stroke-27" stroke-linecap="round" stroke-linejoin="round"></path>
                                    <path d="M3.34278007,13.7179263 C3.34458007,13.7215263 3.34638007,13.7251263 3.34818007,13.7287263 C3.39318007,13.8115263 3.46518008,13.8799263 3.52818008,13.9555263 C3.59658008,14.0419263 3.63978008,14.1409263 3.73158008,14.2147263 C3.83058008,14.2975263 3.97818009,14.3533263 4.10058009,14.4217263 C4.22298009,14.4901263 4.32198009,14.5711263 4.4677801,14.6251263 C4.6441801,14.6935263 4.87098011,14.7295263 5.07978011,14.7781263 C5.21838011,14.8087263 5.33178012,14.8555263 5.48478012,14.8771263 C5.86998013,14.9347263 6.29838014,14.9635263 6.76638015,14.9635263 C7.30998016,14.9635263 7.90398017,14.9185263 8.54298019,14.8321263 C8.76618019,14.8015263 9.0235802,14.7367263 9.2575802,14.6971263 C9.68058021,14.6233263 10.0963802,14.5567263 10.5535802,14.4487263 C10.3483802,13.4389263 10.1827802,12.3391263 10.0621802,11.1781262 L3.30318007,13.6459263 L3.29058007,13.6513263 C3.30318007,13.6765263 3.33018007,13.6927263 3.34278007,13.7179263" id="Fill-29" fill="#FFFFFF"></path>
                                    <path d="M4.10130009,14.4219063 C4.22370009,14.4903063 4.32270009,14.5713063 4.4685001,14.6253063" id="Stroke-31" stroke-linecap="round" stroke-linejoin="round"></path>
                                    <path d="M6.76602015,14.9633463 C7.30962016,14.9633463 7.90362017,14.9183463 8.54262019,14.8319463" id="Stroke-33" stroke-linecap="round" stroke-linejoin="round"></path>
                                    <path d="M3.73122008,14.2152663 C3.63942008,14.1396663 3.59622008,14.0406663 3.52782008,13.9542663" id="Stroke-35" stroke-linecap="round" stroke-linejoin="round"></path>
                                    <path d="M5.08032011,14.7777663 C5.21892011,14.8083663 5.33232012,14.8551663 5.48532012,14.8767663" id="Stroke-37" stroke-linecap="round" stroke-linejoin="round"></path>
                                    <path d="M5.27112011,15.0115863 C5.34672012,15.0241863 5.41872012,15.0403863 5.49612012,15.0511863" id="Stroke-39" stroke-linecap="round" stroke-linejoin="round"></path>
                                    <path d="M4.28058009,14.7374463 C4.29138009,14.7428463 4.30038009,14.7500463 4.31298009,14.7536463" id="Stroke-41" stroke-linecap="round" stroke-linejoin="round"></path>
                                    <path d="M4.10130009,14.4219063 C3.97710009,14.3535063 3.82950008,14.2977063 3.73050008,14.2149063" id="Stroke-43" stroke-linecap="round" stroke-linejoin="round"></path>
                                    <path d="M6.76602015,14.9633463 C6.29802014,14.9633463 5.86962013,14.9345463 5.48622012,14.8769463" id="Stroke-45" stroke-linecap="round" stroke-linejoin="round"></path>
                                    <path d="M4.4677801,14.6258463 C4.6441801,14.6924463 4.87098011,14.7302463 5.07978011,14.7770463" id="Stroke-47" stroke-linecap="round" stroke-linejoin="round"></path>
                                    <line x1="3.30228007" y1="13.6466463" x2="3.29148007" y2="13.6502463" id="Stroke-49" stroke-linecap="round" stroke-linejoin="round"></line>
                                    <path d="M7.66080017,8.52096618 C7.46820016,8.62716619 7.26480016,8.72976619 7.08300015,8.83776619 C6.87960015,8.95836619 6.70320015,9.0789662 6.51420014,9.1995662 C6.34140014,9.3111662 6.15600013,9.4209662 5.99580013,9.53436621 C5.82300013,9.65316621 5.67720012,9.77376621 5.52060012,9.89436621 C5.36940012,10.0095662 5.20560011,10.1247662 5.06880011,10.2399662 C4.93020011,10.3551662 4.8186001,10.4703662 4.6962001,10.5837662 C4.5666001,10.7043662 4.4244001,10.8249662 4.31100009,10.9437662 C4.20840009,11.0517662 4.13280009,11.1579662 4.04280009,11.2659662 C3.94020009,11.3865662 3.82320008,11.5107662 3.73860008,11.6313663 C3.66120008,11.7411663 3.61620008,11.8455663 3.55320008,11.9517663 C3.48840008,12.0651663 3.40740007,12.1803663 3.36060007,12.2901663 C3.30120007,12.4287663 3.27960007,12.5583663 3.24900007,12.6897663 C3.23100007,12.7617663 3.19500007,12.8409663 3.18600007,12.9111663 C3.16800007,13.0677663 3.19320007,13.2135663 3.22020007,13.3593663 C3.22020007,13.3593663 3.22020007,13.3629663 3.22200007,13.3647663 C3.23100007,13.3989663 3.23100007,13.4421663 3.24000007,13.4763663 L9.99900022,11.0085662 C9.3510002,10.0473662 8.77320019,9.0987662 8.28000018,8.18436618 C8.06220017,8.29596618 7.86600017,8.40936618 7.66080017,8.52096618" id="Fill-51" fill="#FFFFFF"></path>
                                    <path d="M3.73914008,11.6304663 C3.66174008,11.7402663 3.61674008,11.8446663 3.55374008,11.9526663" id="Stroke-53" stroke-linecap="round" stroke-linejoin="round"></path>
                                    <path d="M4.31136009,10.9432262 C4.20696009,11.0530262 4.13136009,11.1574262 4.04316009,11.2654262" id="Stroke-55" stroke-linecap="round" stroke-linejoin="round"></path>
                                    <path d="M5.06808011,10.2390662 C4.92948011,10.3542662 4.8196801,10.4694662 4.6954801,10.5846662" id="Stroke-57" stroke-linecap="round" stroke-linejoin="round"></path>
                                    <path d="M3.24864007,12.6895863 C3.27924007,12.5581863 3.30084007,12.4285863 3.36024007,12.2899863" id="Stroke-59" stroke-linecap="round" stroke-linejoin="round"></path>
                                    <path d="M5.52060012,9.89382621 C5.67720012,9.77502621 5.82300013,9.65442621 5.99580013,9.53382621" id="Stroke-61" stroke-linecap="round" stroke-linejoin="round"></path>
                                    <path d="M4.11624009,10.8807662 C4.06944009,10.9311662 4.03524009,10.9797662 3.99204009,11.0283662" id="Stroke-63" stroke-linecap="round" stroke-linejoin="round"></path>
                                    <path d="M3.44646007,11.7543063 C3.48966008,11.6841063 3.53286008,11.6139063 3.58326008,11.5437063" id="Stroke-65" stroke-linecap="round" stroke-linejoin="round"></path>
                                    <path d="M5.68584012,9.53508621 C5.78664013,9.46308621 5.88924013,9.3910862 5.99364013,9.3190862" id="Stroke-67" stroke-linecap="round" stroke-linejoin="round"></path>
                                    <path d="M5.02056011,10.0475462 C4.95216011,10.1033462 4.87836011,10.1591462 4.8135601,10.2149462" id="Stroke-69" stroke-linecap="round" stroke-linejoin="round"></path>
                                    <path d="M3.20832007,12.2113263 C3.18132007,12.2743263 3.15072007,12.3355263 3.12912007,12.3967263" id="Stroke-71" stroke-linecap="round" stroke-linejoin="round"></path>
                                    <path d="M4.6953001,10.5844862 C4.5675001,10.7032862 4.4253001,10.8238862 4.31190009,10.9426862" id="Stroke-73" stroke-linecap="round" stroke-linejoin="round"></path>
                                    <path d="M3.73914008,11.6304663 C3.82374008,11.5116662 3.93894009,11.3874662 4.04154009,11.2650662" id="Stroke-75" stroke-linecap="round" stroke-linejoin="round"></path>
                                    <path d="M3.24864007,12.6895863 C3.23064007,12.7633863 3.19464007,12.8407863 3.18564007,12.9127863" id="Stroke-77" stroke-linecap="round" stroke-linejoin="round"></path>
                                    <path d="M3.36024007,12.2905263 C3.40704007,12.1807263 3.48804008,12.0655263 3.55284008,11.9521263" id="Stroke-79" stroke-linecap="round" stroke-linejoin="round"></path>
                                    <path d="M5.99526013,9.53418621 C6.15546013,9.4225862 6.34086014,9.3109862 6.51366014,9.1993862" id="Stroke-81" stroke-linecap="round" stroke-linejoin="round"></path>
                                    <path d="M5.52060012,9.89382621 C5.36940012,10.0090262 5.20560011,10.1242262 5.06880011,10.2394262" id="Stroke-83" stroke-linecap="round" stroke-linejoin="round"></path>
                                    <path d="M9.84672021,7.26312616 C9.84672021,6.67812614 9.87012021,6.09492613 9.91332021,5.48472612 C9.2869202,5.73492612 8.67852019,6.02652613 8.05572017,6.37392614 C8.24112018,6.78792615 8.46972018,7.25232616 8.73792019,7.75272617 C9.0619202,7.59972616 9.4129202,7.44312616 9.82872021,7.27032616 C9.83592021,7.26672616 9.84132021,7.26492616 9.84672021,7.26312616" id="Fill-85" fill="#FFFFFF"></path>
                                    <path d="M9.72792021,7.51008616 C9.4237202,7.63968617 9.1465202,7.76208617 8.89452019,7.88088617 C8.87112019,7.88988617 8.84592019,7.90248617 8.82432019,7.91328617 C9.1645202,8.53968619 9.53892021,9.1768862 9.94212022,9.81228621 C9.88272021,8.97348619 9.85032021,8.18508618 9.84672021,7.45968616 C9.80532021,7.47588616 9.76752021,7.49208616 9.72792021,7.51008616" id="Fill-87" fill="#FFFFFF"></path>
                                    <path d="M10.4574602,7.01274615 C10.4952602,6.99654615 10.5348602,6.98034615 10.5744602,6.96414615 C10.6932602,6.91374615 10.8120602,6.86334615 10.9380602,6.81834615 C13.3374603,5.93994613 15.7152603,5.45754612 17.6358604,5.45754612 C18.0840604,5.45754612 18.4818604,5.49354612 18.8580604,5.54574612 C18.9498604,5.55654612 19.0380604,5.57094612 19.1244604,5.58714612 C19.4790604,5.65014612 19.8084604,5.73114612 20.0838604,5.84274613 C20.1000604,5.84994613 20.1108604,5.85894613 20.1270604,5.86614613 C20.3088604,5.94174613 20.4780604,6.02634613 20.6220604,6.12354613 C18.9966604,4.15614609 14.8170603,3.72234608 10.5420602,5.23614611 C10.4916602,5.84274613 10.4628602,6.42594614 10.4574602,7.01274615" id="Fill-89" fill="#FFFFFF"></path>
                                    <g id="Group-93" transform="translate(12.600000, 7.364846)">
                                        <mask id="mask-2" fill="white">
                                            <use xlink:href="#path-1"></use>
                                        </mask>
                                        <g id="Clip-92"></g>
                                        <path d="M8.56422019,1.05154002 C8.52642018,1.13614002 8.50122018,1.21894003 8.45262018,1.30714003 C8.31402018,1.56094003 8.13762018,1.81834004 7.91982017,2.08114005 C7.90542017,2.09914005 7.89642017,2.11714005 7.88202017,2.13514005 C7.64262017,2.41594005 7.35462016,2.69854006 7.03242015,2.98294006 C6.93342015,3.07114007 6.81642015,3.15754007 6.70842015,3.24574007 C6.46902014,3.44194007 6.22062013,3.63634008 5.94522013,3.82894008 C5.79942013,3.93334009 5.64642012,4.03414009 5.48982012,4.13674009 C5.21802011,4.31314009 4.93362011,4.4895401 4.6348201,4.6623401 C4.4620201,4.7631401 4.28922009,4.86214011 4.10742009,4.96114011 C3.77622008,5.13934011 3.42882007,5.31034012 3.07242007,5.48134012 C2.90142006,5.56234012 2.73762006,5.64514012 2.56122006,5.72434012 C2.01762004,5.96734013 1.45422003,6.20134013 0.863820019,6.41734014 C0.739620016,6.46234014 0.619020013,6.50014014 0.498420011,6.53794014 C0.45702001,6.55054014 0.413820009,6.56494014 0.370620008,6.57934014 C0.754020016,7.02574015 1.14822002,7.45594016 1.57302003,7.88434017 C2.21202005,7.64314017 2.85822006,7.34614016 3.54222008,6.97894015 L4.07502009,6.67474014 C7.02162015,4.95034011 8.75862019,2.65894006 8.72802019,0.677140015 C8.69382019,0.797740017 8.62002019,0.92734002 8.56422019,1.05154002" id="Fill-91" fill="#FFFFFF" mask="url(#mask-2)"></path>
                                    </g>
                                    <path d="M10.7334002,11.0116262 C10.7748002,11.0746262 10.8162002,11.1394262 10.8612002,11.2024262 C11.5020002,12.1204263 12.1680003,12.9916263 12.8430003,13.7944263 C12.9096003,13.7728263 12.9780003,13.7512263 13.0446003,13.7296263 C13.1634003,13.6936263 13.2822003,13.6576263 13.4010003,13.6126263 C14.0238003,13.3858263 14.6196003,13.1428263 15.1866003,12.8872263 C15.4044003,12.7900263 15.5970003,12.6820263 15.8076003,12.5794263 C16.1424003,12.4174263 16.4862004,12.2572263 16.7976004,12.0862263 C17.0010004,11.9746263 17.1774004,11.8558263 17.3700004,11.7424263 C17.6508004,11.5732263 17.9442004,11.4076262 18.1998004,11.2366262 C18.3816004,11.1160262 18.5274004,10.9918262 18.6930004,10.8694262 C18.9252004,10.7002262 19.1682004,10.5310262 19.3716004,10.3600262 C19.5174004,10.2358262 19.6272004,10.1134262 19.7568004,9.99102622 C19.9368004,9.82002621 20.1312004,9.65082621 20.2788004,9.48162621 C20.3886004,9.3574262 20.4588004,9.2386262 20.5506004,9.1144262 C20.6712004,8.95062619 20.8080005,8.78682619 20.8962005,8.62662619 C20.9646005,8.50422618 20.9898005,8.38722618 21.0366005,8.26842618 C21.0960005,8.11722618 21.1698005,7.96422617 21.1950005,7.81842617 C21.2148005,7.70142617 21.1878005,7.59342616 21.1842005,7.48002616 C21.1806005,7.36122616 21.1860005,7.23882616 21.1536005,7.12722615 L10.6920002,10.9468262 C10.7046002,10.9684262 10.7190002,10.9900262 10.7334002,11.0116262" id="Fill-94" fill="#FFFFFF"></path>
                                    <path d="M19.9602004,5.98692613 C19.7640004,5.91132613 19.5174004,5.86272613 19.2780004,5.81052613 C19.1592004,5.78532613 19.0620004,5.74572612 18.9342004,5.72592612 C18.5436004,5.66652612 18.1116004,5.63592612 17.6346004,5.63592612 C15.7356003,5.63592612 13.3794003,6.11652613 10.9980002,6.98592615 C10.8756002,7.03092615 10.7604002,7.07952615 10.6452002,7.12992615 C10.5822002,7.15692616 10.5192002,7.18392616 10.4562002,7.20912616 C10.4526002,8.26032618 10.4994002,9.3529262 10.5966002,10.4599262 C10.6038002,10.5445262 10.6146002,10.6273262 10.6236002,10.7101262 C10.6254002,10.7317262 10.6290002,10.7533262 10.6308002,10.7767262 L21.0924005,6.95532615 C21.0438005,6.84372615 20.9574005,6.74832615 20.8800005,6.64932614 C20.8170005,6.57012614 20.7774005,6.48192614 20.6964004,6.41172614 C20.5758004,6.31092614 20.4102004,6.23352614 20.2536004,6.15072613 C20.1528004,6.09852613 20.0754004,6.03192613 19.9602004,5.98692613" id="Fill-96" fill="#FFFFFF"></path>
                                    <g id="Group-100" transform="translate(6.500000, 0.864846)">
                                        <mask id="mask-4" fill="white">
                                            <use xlink:href="#path-3"></use>
                                        </mask>
                                        <g id="Clip-99"></g>
                                        <path d="M6.31726014,17.7503404 C6.30646014,17.7503404 6.29566014,17.7521404 6.29206014,17.7521404 C6.04726013,17.7521404 5.80246013,17.4263404 5.64226012,17.1545404 C5.41006012,16.7621404 5.17606011,16.1861404 4.96186011,15.4859403 C4.5910601,14.2781403 4.28146009,12.7067403 4.06726009,10.9445402 C4.06186009,10.9031402 4.08526009,10.8635402 4.12306009,10.8491402 C4.16266009,10.8311402 4.20586009,10.8473402 4.22926009,10.8815402 C5.25166011,12.3143403 6.31186014,13.6049403 7.29646016,14.6093403 C7.31446016,14.6291403 7.32526016,14.6543403 7.32166016,14.6813403 C7.12726015,16.8953404 6.67546015,17.7179404 6.31726014,17.7503404 L6.31726014,17.7503404 Z M3.59206008,9.3857402 C3.58306008,9.3875402 3.57406008,9.3875402 3.56506008,9.3875402 C3.53446008,9.3875402 3.50566008,9.3749402 3.48946008,9.3479402 C2.52286006,7.85934017 1.74886004,6.45174014 1.25566003,5.27634011 C0.665260015,3.87774008 0.510460011,2.90394006 0.843460019,2.66994006 C0.89386002,2.63394006 0.962260021,2.61594006 1.04686002,2.61594006 C1.33846003,2.61594006 2.05666004,2.84454006 3.58666008,4.3799401 C3.60466008,4.3997401 3.61366008,4.4249401 3.61186008,4.4501401 C3.50386008,5.86494013 3.51646008,7.53894016 3.65506008,9.2921402 C3.65686008,9.3335402 3.63166008,9.3713402 3.59206008,9.3857402 L3.59206008,9.3857402 Z M10.0756602,13.3691403 L10.0720602,13.3709403 C10.0198602,13.4033403 9.95866022,13.4357403 9.89746021,13.4681403 L9.85246021,13.4933403 L9.85426021,13.4987403 C10.5094602,15.0035403 10.6948602,16.0475403 10.3456602,16.2887404 C10.2880602,16.3283404 10.2178602,16.3481404 10.1368602,16.3481404 C9.89026021,16.3481404 9.2908602,16.1735404 8.04526017,15.0107403 C7.95346017,14.9243403 7.85806017,14.8271403 7.76446017,14.7299403 C7.71226017,14.6777403 7.66186017,14.6255403 7.61146017,14.5733403 C7.60786017,14.5697403 7.60426017,14.5661403 7.60246017,14.5625403 C7.59886017,14.5607403 7.59526017,14.5589403 7.59166016,14.5553403 C6.48826014,13.4447403 5.32006012,12.0245403 4.22026009,10.4441402 C4.17346009,10.3775402 4.12846009,10.3109402 4.08526009,10.2443402 C4.05286009,10.1939402 4.02046009,10.1435402 3.98626009,10.0949402 C3.97726009,10.0823402 3.97186009,10.0661402 3.97006009,10.0535402 C3.96466009,9.98514022 3.95566009,9.91674022 3.95026009,9.85014021 C3.93946009,9.77274021 3.93046009,9.69354021 3.92326009,9.61434021 C3.72886008,7.37514016 3.73066008,5.25834011 3.93046009,3.65094008 C4.11586009,2.14434005 4.4686601,1.22274003 4.87186011,1.18674003 L4.89706011,1.18674003 C5.15446011,1.18674003 5.40826012,1.53774003 5.57746012,1.83294004 C5.81146013,2.24874005 6.04546013,2.84274006 6.25786014,3.55734008 L6.50986014,3.51054008 C5.84026013,1.27314003 5.21386011,0.934740021 4.89706011,0.934740021 C4.88266011,0.934740021 4.87006011,0.936540021 4.85566011,0.938340021 C4.29946009,0.986940022 3.89626008,1.91574004 3.68566008,3.62034008 C3.67846008,3.66714008 3.67486008,3.71754008 3.67126008,3.76974008 C3.66766008,3.81654008 3.66406008,3.86154008 3.66046008,3.90474008 C3.65686008,3.93894009 3.63526008,3.96774009 3.60106008,3.98034009 C3.57046008,3.98934009 3.53446008,3.98394009 3.50746008,3.96054009 C2.07106005,2.57274006 1.34566003,2.36574005 1.04146002,2.36574005 L1.02346002,2.36574005 C0.90646002,2.36574005 0.796660018,2.40174005 0.699460016,2.46654005 C0.247660006,2.78514006 0.359260008,3.78954008 1.02706002,5.37354012 C1.59766004,6.73074015 2.55346006,8.42274018 3.72166008,10.1435402 C3.73066008,10.1561402 3.73426008,10.1705402 3.73606008,10.1867402 C3.94486009,12.2495403 4.29586009,14.1575403 4.7260601,15.5597403 C5.21386011,17.1563404 5.75566013,18.0005404 6.29206014,18.0005404 C6.31186014,18.0005404 6.32086014,18.0005404 6.33526014,17.9987404 C6.91846015,17.9465404 7.33066016,16.9313404 7.53226016,15.0557403 C7.53586016,15.0215403 7.55746016,14.9927403 7.59166016,14.9819403 C7.62406017,14.9693403 7.65826017,14.9765403 7.68526017,15.0017403 C7.71406017,15.0287403 7.74466017,15.0611403 7.77706017,15.0917403 C7.80946017,15.1277403 7.84366017,15.1637403 7.87606017,15.1925403 C8.85706019,16.1105403 9.64186021,16.5947404 10.1440602,16.5947404 L10.1602602,16.5947404 C10.2772602,16.5947404 10.3942602,16.5605404 10.4860602,16.4957404 C10.9558602,16.1645404 10.8118602,15.0557403 10.0774602,13.3727403 L10.0756602,13.3691403 Z" id="Fill-98" fill="#FFFFFF" mask="url(#mask-4)"></path>
                                    </g>
                                </g>
                            </g>
                        </g>
                    </g>
                </g>
            </g>
        </g>
    </g>
</svg>